<?xml version="1.0" encoding="UTF-8"?>
<svg version="1.1" viewBox="0 0 1600 1600" width="1280" height="1280" xmlns="http://www.w3.org/2000/svg">
<path transform="translate(616,159)" d="m0 0h23l26 3 21 5 18 6 23 10 38 17 21 7 11 2h22l25-5 36-7 19-2h17l16 2 12 3 13 6 16 9 13 10 14 12 37 37 8 7 13 11 16 12 16 10 12 6 48 17 25 11 15 9 13 10 12 12 10 14 9 16 8 21 6 26 4 29 2 26v9l-3 10-4 6-5 6-10 6-8 2h-9l-13-4-16-7-7 1-5 5-8 40-10 36-2 6 1 5 13 11 11 14 6 10 6 15 4 17 1 9v11l-3 19-5 15-9 17-7 9-8 9-14 11-16 8-14 5-11 3-2 35-3 59-2 23-5 24-9 27-12 25-11 17-10 13-12 13-9 8-5 4 37 13 4 1 9-13 12-9 10-4 4-1h19l10 3 12 7 7 7 6 9 4 12 1 7v29l3 3 20 13 6 3 3-9 15-35 8-15 7-9 8-7 12-6 9-2h13l12 3 11 6 8 7 7 10 4 10 2 13-2 14-24 76-5 17 1 1h7l2-4 13-19 12-16 12-17 10-14 9-12 10-10 10-6 10-3 13-1 12 2 9 4 9 6 8 8 7 14 2 7v19l-5 14-45 78-8 11 7 1 9-6 28-22 13-9 10-5 8-2h17l11 3 12 7 9 9 6 10 3 9 1 6v11l-3 12-6 11-11 18-10 14-9 8-12 6-14 4-11 9-9 9-8 13-11 17-14 21-12 17-18 22-7 7-13 9-10 5-13 4-17 3h-1011l-5-1-13-2-16-6-10-6-11-9-10-11-9-11-11-15-20-30-15-23-6-8-8-8-8-6-20-6-10-7-7-7-10-15-13-21-4-11-1-4v-14l3-12 5-9 8-10 10-7 14-5h19l10 3 11 6 13 10 18 14 15 11 8-1-10-14-15-27-14-24-13-23-5-11-2-13 2-15 4-9 6-9 8-8 10-6 9-3 6-1h11l13 3 12 7 12 12 14 20 12 17 13 18 12 17 6 8h6l-1-8-14-44-13-42-2-11 1-13 5-13 8-11 10-8 11-5 10-2h10l10 2 14 7 9 8 9 14 11 25 18 42v2l5-3 16-12 1-54 4-13 7-11 10-9 12-6 8-2h16l9 2 10 5 10 9 6 8 4 8 1 7 31-13 19-7 4-1-11-9-12-11-8-8-11-14-10-15-8-15-10-25-6-21-4-22-2-22-2-43-2-47-9-2-16-4-19-9-11-8-12-11-8-10-8-14-6-14-4-19v-23l4-18 5-13 7-13 10-13 8-8 10-8-4-17-10-44-7-37-5-35-2-16-1-17v-40l2-17 5-16 6-12 8-11 9-10 8-8 15-11 15-9 23-11 5-2v-6l-1-2-8-2-16-1-14-3-9-5-8-9-5-13v-9l3-10 12-18 9-12 12-13 11-11 13-10 13-8 16-8 15-6 20-6 22-4z" fill="#6B9EA0"/>
<path transform="translate(477,1050)" d="m0 0h16l9 2 10 5 10 9 6 8 4 8 1 7 31-13 19-7h7l22 12 15 6 20 6 19 4 9 1 1 1 3 21 5 17 10 21 10 14 11 12 14 11 17 10 16 6 15 4 15 2h15l21-3 21-7 16-8 13-9 12-11 10-12 8-13 8-17 4-13 3-16 1-8 1-1 29-4 20-5 22-8 17-9 13-9 9 1 31 11 4 1 9-13 12-9 10-4 4-1h19l10 3 12 7 7 7 6 9 4 12 1 7v29l3 3 20 13 6 3 3-9 15-35 8-15 7-9 8-7 12-6 9-2h13l12 3 11 6 8 7 7 10 4 10 2 13-2 14-24 76-5 17 1 1h7l2-4 13-19 12-16 12-17 10-14 9-12 10-10 10-6 10-3 13-1 12 2 9 4 9 6 8 8 7 14 2 7v19l-5 14-45 78-8 11 7 1 9-6 28-22 13-9 10-5 8-2h17l11 3 12 7 9 9 6 10 3 9 1 6v11l-3 12-6 11-11 18-10 14-9 8-12 6-14 4-11 9-9 9-8 13-11 17-14 21-12 17-18 22-7 7-13 9-10 5-13 4-17 3h-1011l-5-1-13-2-16-6-10-6-11-9-10-11-9-11-11-15-20-30-15-23-6-8-8-8-8-6-20-6-10-7-7-7-10-15-13-21-4-11-1-4v-14l3-12 5-9 8-10 10-7 14-5h19l10 3 11 6 13 10 18 14 15 11 8-1-10-14-15-27-14-24-13-23-5-11-2-13 2-15 4-9 6-9 8-8 10-6 9-3 6-1h11l13 3 12 7 12 12 14 20 12 17 13 18 12 17 6 8h6l-1-8-14-44-13-42-2-11 1-13 5-13 8-11 10-8 11-5 10-2h10l10 2 14 7 9 8 9 14 11 25 18 42v2l5-3 16-12 1-54 4-13 7-11 10-9 12-6z" fill="#537E87"/>
<path transform="translate(616,159)" d="m0 0h23l26 3 21 5 18 6 23 10 38 17 21 7 11 2h22l25-5 36-7 19-2h17l16 2 12 3 13 6 16 9 13 10 14 12 37 37 8 7 13 11 16 12 16 10 12 6 48 17 25 11 15 9 13 10 12 12 10 14 9 16 8 21 6 26 4 29 2 26v9l-3 10-4 6-5 6-10 6-8 2h-9l-13-4-16-7-7 1-5 5-8 40-10 36-9 24-8 20-6 8-3 3h-2v2l-4 1h-9l-1-1v-17l1-20v-59l-2-14-7-14-3-3v-2h-2l-4-5v-2l-4-2-6-8v-2h-2l-8-16-5-16-3-19-4-38-3-14-5-12-8-8v-2h-3v-2l-5-1-8-4-19-5-35-6-31-4-31-3-40-3-48-2h-69l-39 2-38 3-40 5-35 6-27 6-13 4-10 6-8 9-5 13-2 15-2 25-3 23-4 17-8 16-12 16-10 11-7 11-4 13-1 8v25l2 52v19l-7-1-12-6-7-7-8-15-8-24-9-36-10-48-6-38-3-25-1-17v-40l2-17 5-16 6-12 8-11 9-10 8-8 15-11 15-9 23-11 5-2v-6l-1-2-8-2-16-1-14-3-9-5-8-9-5-13v-9l3-10 12-18 9-12 12-13 11-11 13-10 13-8 16-8 15-6 20-6 22-4z" fill="#331F42"/>
<path transform="translate(477,1050)" d="m0 0h16l9 2 10 5 10 9 6 8 4 8 3 11 2 231 4 9 6 7v2l4 1 4 3 8 2h12l17-4 25-3h28l19 2 17 4 14 7 3 2v2l4 2 6 8 4 10 1 5v14l-4 12-6 10-5 5-7 6-12 5-11 1h-42l-21 3-13 5-15 9-15 12-15 11-14 8-14 6-21 6-10 2-11 1h-183l-5-1-13-2-16-6-10-6-11-9-10-11-9-11-11-15-20-30-15-23-6-8-8-8-8-6-20-6-10-7-7-7-10-15-13-21-4-11-1-4v-14l3-12 5-9 8-10 10-7 14-5h19l10 3 11 6 13 10 18 14 15 11 8-1-10-14-15-27-14-24-13-23-5-11-2-13 2-15 4-9 6-9 8-8 10-6 9-3 6-1h11l13 3 12 7 12 12 14 20 12 17 13 18 12 17 6 8h6l-1-8-14-44-13-42-2-11 1-13 5-13 8-11 10-8 11-5 10-2h10l10 2 14 7 9 8 9 14 11 25 18 42v2l5-3 16-12 1-54 4-13 7-11 10-9 12-6z" fill="#5D8B92"/>
<path transform="translate(1026,1064)" d="m0 0 9 1 31 11 3 2-1 7-1 4-1 23-1 78-1 133-4 10-7 8-3 1v2l-12 5h-12l-24-5-19-2h-29l-18 2-17 4-10 4-9 7-6 7-5 11-1 5v15l4 13 6 10 8 7 12 6 11 2h41l20 2 13 4 15 8 16 12 17 13 16 9 14 6 22 6 9 2v1h-624l4-2 21-5 16-6 15-8 14-10 15-12 15-10 11-5 11-3 16-2h42l11-1 12-5 7-6h2l2-4 6-10 4-12v-14l-4-13-6-9-4-3v-2l-4-2-13-6-17-4-19-2h-28l-25 3-17 4h-12l-9-3-7-4-8-10-3-8-2-235 8-4 27-11 14-5h7l22 12 15 6 20 6 19 4 9 1 1 1 3 21 5 17 10 21 10 14 11 12 14 11 17 10 16 6 15 4 15 2h15l21-3 21-7 16-8 13-9 12-11 10-12 8-13 8-17 4-13 3-16 1-8 1-1 29-4 20-5 22-8 17-9z" fill="#331F42"/>
<path transform="translate(818,388)" d="m0 0h5l-3 1v2h21l40 2 34 3 18 2 4 1 24 1 31 1 6 1 5-1 13 2 6 1 1 2 14 3 5 5 6 3 6 9 3 7 4 2v-2h2l3 17 4 39 3 14v3h2l7 17 3 5v2h2l8 11 5 5 1 3h2l7 10 4 9 2 14v59l-1 20v17h13v-2l7-6 7-14 9-24 2-4 3 5 11 9 10 12 8 13 6 15 4 17 1 9v11l-3 19-5 15-9 17-7 9-8 9-14 11-16 8-14 5-11 3-2 35-3 59-2 23-5 24-9 27-12 25-4 6h-1l-1-7-6-1-14-5-7 1-7-3-13-2-8-3-9-2-8-2v2l-7-2-16-5-8-3-12-3 1 3-12-2-11-3-11-2-4 1h-7l-12-2-10-1-21-3-13-4-2-4-4-2-4-10v-2h-2l-1-6 4-1 2-5 4-1 21-1 17-2h20l9 2 14 5 10 5-2 3 17 6 7 1 10 6 8 3-1 2h9l-2-2 4-2 3 1-1-10 3-22 4-25 5-22 1-5-4 13-2 10-2 2-1 7-5 4-1-7-1-5-2-6-4-16-2-7v-3-6l2-1-4-1 1-2-2-1 3-5-1-4-1-3-4-2v-2l-3-1-3-9-7-6-1-3-1-12-1-1v-7l-4-2v-3h4l-1-7 4-1-18-1-8-1-6-2-8-2v-1l28-1v-2l12-3 16-7 16-10 7-8 8-9 6-10 5-10 4-13 2-10v-20l-1-13-9 1h-16v15l-2 12-5 13-5 9-8 11-7 7-14 9-10 5-11 3-9 1h-14l-17-3-15-7-9-6-10-9-8-11-6-11-5-15-1-8v-14l1-2h46v14l4 10 6 8 9 5 4 1h15l9-4 7-6 5-10 1-4v-14l-57-1 2-4 3-3h46l1-7-4-1-2-10-9-1-4-8-2-5 1-7 1-4 8-4h33l11 2 15 8 6 5 8 8v3l3 1 9 19 3 2 1-4-5-10-3-7-4-8-4-12-2-2v-3l-3-1-1-2-4-2-3-5 19 1v-2l10-5 6-7 4-10v-11l-6-12-9-8-19-11-15-7-21-7-21-4-9-1h-29l-12 2-8 4-5 5-4 5-2 9v8l5 15-5-2-4-4-4-10v-12l6-14 6-7 7-4 5-3h11v-3l5 1 3-3 28 1 11 2 2 1v-3h8l-3-1v-2l-10-3-5-3-8-1-2 4-4 1-6-2h-5l-5 3-10-2h-2l-4 2-7 1-6 2-9 6-5 3-4 4h-2v2l-5 2-5 6-1 3-5 3h-2l-1 3h-2l-2 4-4 3-4 2-3-1-1 7-1 2h-3v2l-4 3-4 1-4 4h-2l-1 5-9 8h-3v2l-10 4-8 2-6-4v-2h-6l-8-10 2-5-2-2-2 2-6-1-1-4 1-2-6-2-4-2-1-2h-4l-1 3-4 3-3 6h-2l-1 3-6 3-9 5-2-1 4-5 5-5 1-2h2l2-10v-9l-3-9-5-7-8-5-13-4v-1l5-1-8-1v-3h-7l4-1v-2l24 2 1-2h-5l-4-7v-12l3-9 3-1v-2h2v-9l4-8 5-5 6-10 6-7 2-7 2-4h3l1-7h2l1-11 1-10 7-6 9-3 24-3h33z" fill="#73AFAA"/>
<path transform="translate(502,809)" d="m0 0 10 2 17 6 11 7v2l4 2 5 4 6 7 2 4 2 1 4 7 7 12 1 6h2l4 13 2 5 5 25 4 27 3 28v4l6-2h10l3-1 2-5 1 3 6 1v-2h5l4-2 2 1 8-4 3-1 1-6h1l2 8h2l-2-4v-3h3l1 3 2-2 6 14 8 10 10 8 13 6 7 2 9 1h143v-13l-4-20-8-20-5-8 1-3-3-6 4 1 4 5 5 9 2 3v4h2l6 13 4 4 13 4 21 3 13 1 9 2h9l3-1 13 3 19 4v-2l12 2 8 3 16 5 6 2 1-2 10 3 7 1 9 3 12 2 7 3 7-1 17 6 4 1v9l-9 13-8 10-11 12-9 8-5 4-4 3-16 10-16 8-19 7-20 5-29 4-3 19-4 15-5 12-9 17-13 16-9 9-14 10-14 8-19 7-18 4-10 1h-15l-15-2-19-5-14-6-15-9-10-8-11-10-11-14-8-14-7-16-4-14-3-21-19-3-20-5-17-6-17-8-12-7-3-2-11-9-12-11-8-8-11-14-10-15-8-15-10-25-6-21-4-22-2-22-2-43-2-47z" fill="#667CA3"/>
<path transform="translate(333,1060)" d="m0 0h10l10 2 14 7 9 8 9 14 11 25 18 42v2l5-3 15-11h2l1 15 2 2-1 18 2 5 3 12-1 4 2 2v3h2l3 7 11 9 5 3 21 6v1h-13l-9-3-2 7-3 1-2 5-7 7h-2v2h-2l-2 4-6 7h-2l-2 5h-2v2h-2l-2 4-7 7-8 4-18 6-20 7-32 8-16 3-9 1-9 2-14 1-13 3-13 2-8 1-10 4h-11l-12 3h-8l-7 1-2 1-5 1-8 13-9 10h-2l-2 4-1 5 4 11 6 10 6 11 15 25 12 16 8 10 7 7v2l4 2 10 8 15 8 16 4 23 3h142l23-1 17-3 25-6 18-7 16-9 15-10 21-13 10-5 13-5 18-3 14-2 32-2 14-3 9-3 9-5h2l1 3-6 12-1 4-5 5-8 6-10 4-11 1h-42l-21 3-13 5-15 9-15 12-15 11-14 8-14 6-21 6-10 2-11 1h-183l-5-1-13-2-16-6-10-6-11-9-10-11-9-11-11-15-20-30-15-23-6-8-8-8-8-6-20-6-10-7-7-7-10-15-13-21-4-11-1-4v-14l3-12 5-9 8-10 10-7 14-5h19l10 3 11 6 13 10 18 14 15 11 8-1-10-14-15-27-14-24-13-23-5-11-2-13 2-15 4-9 6-9 8-8 10-6 9-3 6-1h11l13 3 12 7 12 12 14 20 12 17 13 18 12 17 6 8h6l-1-8-14-44-13-42-2-11 1-13 5-13 8-11 10-8 11-5z" fill="#4F7D80"/>
<path transform="translate(522,1218)" d="m0 0h2l2 13 2 2h2v-6l3 1 1 6 1 79 1 10 6 12 5 5v2l4 1 4 3 8 2h12l17-4 25-3h28l19 2 17 4 14 7 3 2v2l4 2 6 8 2 4v6l-3-3h-4l-3 10-8 6-6 2-26 2h-19l-16 2h-10v2l-10 3-11 5-9 5-14 7-6 4-5 2-12 6-4 4-7 2-14 6-9 3-9 2-6 1-4-1-3 3h-13l-1 1h-59l-11 1-4-1-20 2h-11l-12 1-30-2-22-3-18-5-8-2-6-4-9-5-2-4-5-1-4-4-1-5-4-5-2-8 6-11 2-1v-3l5-3 5-5 5-2 10-3 12-2 11-2 12-1h8v-2l8-2h8l15-3 10-4 9-1 6-4 9-1 14-6 9-1v-2l16-12 6-7 7-8 9-9 4-7 11-18 2-5h2l1-4h2v-2h2l1-6 2-3h2l1-5 8-16 1-8v-3l17-7 13-9z" fill="#6B9EA0"/>
<path transform="translate(1087,1270)" d="m0 0 8 6 9 10 6 6v2l4 2 12 12v2h2l8 10 6 8 4 4 2 5h2v2h2l6 7 2 1v2h2l7 8 4 3 7 3 4 2 9 3 8 1 16 3 4-1 2 1v2l7 1 7 2 5-1 8 2 7 1 10 1 7 1 1 3 11-1 6 2 7 3h2v2h2l2 2 3-1 4 2v2l12 2 1 2 5 1 1-2v2l8 1 1 4h2l1 2 4-1 1 6-2 6 1 3h3l1 4-1 1-8 1-5 8-1 3-7 1-1-2-8 3-2 3-8 1-4 4h-4l-1 3-8 2h-10v2l-10-1h-13l-8-1h-12l-8 1-8-1-5 1-16 2-9 1h-8l-6 1-2-1-12-1h-9l-1-1-28-1-13-1-21-4-13-4-8-3-6-4-5-1-9-4-2-3-7-2-3-2v-2l-10-3-6-4-8-3-14-7-13-4-18-3h-12l-5 2h-11l-4 1-16-2-16-6-6-5v-2h-2v-2l-4-2-1-3-4-2-1 3-1-4 2-8 6-9 9-8 10-5 16-4 11-2 11-1h29l19 2 24 5h12l9-4h3v-2l8-7 4-8 1-4h2v-43l5 4 2 3 3-5 2-6 4-4z" fill="#5D8B92"/>
<path transform="translate(1112,566)" d="m0 0 2 2 2 14v59l-1 20v17h13v-2l7-6 7-14 9-24 2-4 3 5 11 9 10 12 8 13 6 15 4 17 1 9v11l-3 19-5 15-9 17-7 9-8 9-14 11-16 8-14 5-11 3-2 35-3 59-2 23-5 24-9 27-12 25-4 6h-1l-1-7-6-1-14-5-7 1-7-3-13-2-8-3-9-2-8-2v2l-7-2-16-5-8-3-12-3 1 3-12-2-11-3-11-2-4 1h-7l-12-2-10-1-21-3-13-4-2-4-4-2-4-10v-2h-2l-1-6 4-1 2-5 4-1 21-1 17-2h20l9 2 14 5 10 5-2 3 17 6 7 1 10 6 8 3-1 2h9l-2-2 4-2 3 1-1-10 3-22 4-25 5-22 8-24 8-16 7-11 10-13 8-8 12-9 17-9 17-5 10-2h5l1-36 4-67 2-3-3-1v-105z" fill="#6B9EA0"/>
<path transform="translate(1384,1115)" d="m0 0 14 1 12 4 11 8 7 7 7 14 2 7v19l-5 14-45 78-8 11 7 1 9-6 28-22 13-9 4-2h3l-1 5h-2l-1 4-4 6-2 5-4 8-6 25-1 7v15l5 10v5l4 2v5h2l1 3 2 1v2h2v2l5 2 11 4v5l-5 1-14-2-5-1-4 1-2 1 1 4-4 6-8 6-12 5h-15l-8-3-6-4-4-4v-2l-4-2-7-9-6-16-6-12-1-5h-5l-1-1h-8l-6 2-27 5h-9l-6 2h-6l-7-1-20-4-12-4-9-2-25-8-12-3-14-5-14-10-11-7-10-8-1-3-8-6-11-12-8-10-4-6-1-3-2-1 1-1-2-2h21l7-1v5l4 2 4 6 5 5 9 5 10 8 6 1 1 3 6 2 17 2h11l14 3h2l3 3 10 3 3 3 11 5 7 1 6 4v2l6 1 5 1 6 2h17l17-3 4-2h5v-2l2-1v-2l-6-2-11-8-9-11-5-12-1-4v-18l4-12 7-13 12-21 8-13 5-10-3 3-2-1 9-12 13-18 11-11 10-6 10-3z" fill="#4A737B"/>
<path transform="translate(1454,1235)" d="m0 0h17l11 3 12 7 9 9 6 10 3 9 1 6v11l-3 12-6 11-11 18-10 14-9 8-12 6-14 4-11 9-9 9-8 13-11 17-14 21-12 17-18 22-7 7-13 9-10 5-13 4-17 3h-183l-13-2-21-5-17-6-17-9-16-12-17-13-14-8-13-5-12-2-20-1h-33l-11-2-12-6-10-9-7-14-2-8v-15h1l1 13 4-2 5 1 6 5v2l5 2 7 4 15 3h43l19 3 13 5 19 10 6 4 10 7 12 6 13 8 25 9 17 4 10 1 5 2h12l12 3 4-1 1 1h6l5 1h13l11-1 3-2h8l3-1h31l9-1 4 1 12-1h18l22-2 10-3 9-2 12-4 15-8 6-3 6-4 3-3h2l2-4 3-3 4-5 4-2 1 2 3-1 2-5 3-7v-6l-1-7v-2l19-1v-2l8-5 3-9 3-1 2-6 6-9 2-7-1-5h5l5-1 9 2 7 1 4-1 1-4-7-1-9-5v-2h-2v-2l-3-1v-3h-2l-2-6-2-1-3-9-3-6v-15l5-25 5-14 2-2 3-7 4-7 2-1v-5l8-3z" fill="#597B90"/>
<path transform="translate(676,1099)" d="m0 0 25 1 40 2 37 1h55l53-1 3-1 17-1h18v8l-4 20-6 16-10 19-13 16-9 9-14 10-14 8-19 7-18 4-10 1h-15l-15-2-19-5-14-6-15-9-10-8-11-10-11-14-8-14-7-16-4-14-2-11z" fill="#4B7182"/>
<path transform="translate(780,1041)" d="m0 0h30l25 1h25l1 1h34l4 1h5v2l4-2 3 1v2h8l13 3 18 3 16 4 16 1 6 1h18l11 2-3 7-5 6 2 1-15 8-25 9-23 5-23 3-36 2-6 1-50 1h-58l-34-1-55-3-25-3-25-6-17-6-17-8-12-7-3-2-11-9-7-6v-3l4 1 9 3 11 2 3-1 7 1 16-4 17-1 15-2 10-2 41-3 38-1 11-1z" fill="#60719D"/>
<path transform="translate(112,1241)" d="m0 0v3l-2 3v2l5 2 8 6 6 3 4 5 3 2v2l5 2 8 4 3 4 15 5 7 2h13l6-1 1-2 4 4 6 16v18l-5 14-11 15-3 1v2l2 1-3 5 2 9 7 13 7 12 15 25 12 16 8 10 7 7v2l4 2 10 8 15 8 16 4 23 3h142l23-1 17-3 25-6 18-7 16-9 15-10 21-13 10-5 13-5 18-3 14-2 32-2 14-3 9-3 9-5h2l1 3-6 12-1 4-5 5-8 6-10 4-11 1h-42l-21 3-13 5-15 9-15 12-15 11-14 8-14 6-21 6-10 2-11 1h-183l-5-1-13-2-16-6-10-6-11-9-10-11-9-11-11-15-20-30-15-23-6-8-8-8-8-6-20-6-10-7-7-7-10-15-13-21-4-11-1-4v-14l3-12 5-9 8-10z" fill="#597B90"/>
<path transform="translate(669,599)" d="m0 0h16l16 3 13 5 13 9 7 6 8 10 7 12 5 15 2 11v14l-2 9-4 13-8 15-10 12-8 6h-2v2l-12 6-12 5-10 2h-21l-6-2-9-2-16-8-11-8-9-10-3-4v-3h-2l-6-12-3-12-1-7v-21l4-16 8-16 12-13 9-8 15-8 14-4z" fill="#FEDF8C"/>
<path transform="translate(1064,1190)" d="m0 0h1l1 28 2 3 1 18 2 10h5l2-6 1-2h2v-3l4-1 1 3h3l3 5 3 2 2 5 8 7 7 9 5 6 3 5 9 10 3 3v2l4 2 6 2 4 5 8 7 10 11 2 1v2l5 2 1 3 5 2 10 5 7 1 1 1 24 3 4 2 7 2 2 1 12 1 9 1 7 1h14l31 1h23l13 8 3 4v2h2l6 8 7 7 2 1v3l4 2 4 3 3 5 4 3 5 2 2 10-1 9-5 9-5 2-1-1h-2l-2 4-14 14-14 7h-2l-1 2-13 6-9 3-10 2-7 2-22 2h-20l-10 1-5-1-9 1h-30l-7 1-5 1-2 1-19 1h-9l-2-1h-5l-2-1-5 1-10-3h-12l-5-2-15-2-18-5-19-7-18-11-10-5-9-7-11-6-21-10-14-3-9-1h-43l-15-3-12-7-4-5-3-2-6 1h-3v-18l2-3v7l1-2 5 2 2 4 2 1v2h2l5 5 8 4 14 4 12 1 3-1h11l7-2h10l21 4 15 5 9 5 10 4 4 3 10 4v2l10 3 2 4 8 2 2 2 6 1 8 5 15 4 6 2 23 4h15l20 1 1 1h11l10 1 3 1 10-1h9l7-2 15-1 4-1 8 1 11-1h8l10 1h16l4 2v-2l14-2 4-1 3-3h4l2-4h8l2-4 5-2 9 1h2l1-5 5-7 8-1v-4h-3v-2l-2-1 2-6v-6l-5 2v-3h-2l-1-4-6 1-3-2h-5l-5-3-10-3v-2l-4-1-1 2h-2v-3h-2v-2l-3 1-8-4-6-1-7 1-4-3-9-1-7-1-12-2-4-1-5 1-6-2-7-2v-2l-8 1-17-4-9-1-5-2-4-2-7-3-2-1v-2l-4-2-5-5v-2h-2v-2l-4-2v-2l-4-2v-2h-2v-2h-2l-4-6v-2l-3-1-6-8-7-8v-2h-2l-7-8-28-28-4-3-8 3-2 3-3 9-3 2-2-4-3-2-1 41h-1z" fill="#58848B"/>
<path transform="translate(207,1115)" d="m0 0h11l13 3 12 7 12 12 5 8 2 6 10 17 16 27 14 25 4 11 1 5v15l-4 11-6 10-7 8-4 3h-3l-1 3-14 5-5 1h-15l-12-4-11-6-6-3 2-1-10-14-15-27-14-24-13-23-5-11-2-13 2-15 4-9 6-9 8-8 10-6 9-3z" fill="#68A598"/>
<path transform="translate(492,576)" d="m0 0h1v27l2 50 3 92 2 36 1 4 19 5 10 3 14 7 8 5v2l4 2 11 10 7 8 3 4v3h2l3 5v3h2l1 6h2l6 15 2 3 3 9 3 10v7h2l6 31 3 32v11l-2 3-7 1h-7l-5 1-2-12-4-36-5-27-2-9-2-5-3-10v-3h-2l-4-9-5-9-3-4v-3l-3-1-3-5v-2l-4-2-5-5-4-3v-2l-5-2-8-5-25-8v6l-15-2-16-5-19-10-14-12-10-11-8-13-7-15-4-16-1-6v-23l4-18 5-13 7-13 10-13 8-8 10-8 2 1 7 21 8 15 9 8 12 5 4 1-2-40-1-31v-25z" fill="#4E6879"/>
<path transform="translate(1255,1060)" d="m0 0h13l12 3 11 6 8 7 7 10 4 10 2 13-2 14-24 76-5 17-6 8-7 7-14 9-7 2h-24l-12-5-9-7-8-9-5-9-3-9v-17h-2l1-6 2-2 2-3 7-24 3-10 9-27-1-6 9-19 8-12 7-7 10-6 9-3z" fill="#77BCAF"/>
<path transform="translate(333,1060)" d="m0 0h10l10 2 14 7 9 8 9 14 8 18-1 6 3 10 5 15v5h2l7 24 3 8 2 9v14l-4 13-7 11-5 5-8 7-10 5-17 2-19-4-10-6-6-5-7-9-3 2-1-2 1-7-15-47-13-42-2-11 1-13 5-13 8-11 10-8 11-5z" fill="#679A95"/>
<path transform="translate(1026,1064)" d="m0 0 9 1 31 11 3 2-1 7-1 4-1 23-1 78h-5l-2 5-2-1-2 2-7 2-13 3h-6l-1-3h-4v-7l-6 1-4-3h-16v-2l-8-2-1 3-11-1-1-1-12 1-4-2h-6l-3-2h-8l-8-2-14-1v-2l-5 2h-5v-5l-7 1 2-5 3-5 1-4-3 1-2 5-16 16h-2l-1 3-10 7-3 3-5 3h-2v-2l11-7 13-12 10-12 8-13 8-17 4-13 3-16 1-8 1-1 29-4 20-5 22-8 17-9z" fill="#180F1F"/>
<path transform="translate(583,1069)" d="m0 0h7l22 12 15 6 20 6 19 4 9 1 1 1 3 21 5 17 10 21 10 14 11 12 14 11-1 2-16-12-8-8-5-3v-3l-3-1v-2l-4-2-3-3 2 5 3 5 5 6 2 5-1 5h-12l-4 1-3-3h-2l-2 4-6-1v-4h-10l-4-2h-6l-3 2h-6l-4-2-7 1h-7l-5-1-4 2-22 2-5 1v-4h-5v2l2 1h-3v2l-9 4-3 1h-6l-1 5-6 2-2 2h-8l-1-3h-2v-7h-2l-2-11 1-5-2-7-1 1-1 7h-1l-2-90 8-4 27-11z" fill="#1C1124"/>
<path transform="translate(933,591)" d="m0 0 25 3 15 5 14 8 6 5-1 2 8 6v2l4 1h3l9 12 2 4 4 4 4 10 2 4-1 4-4-1-9-17-1-3-2-1-3-5-5-4v-2l-3-1v-2l-18-9-11-2h-33l-6 3h-2l-1 11 5 12 9 1 2 4v7l4 1-1 7-7 1h-37l-3 2h-2l1 3 48 1 6 1 1 3v11l-4 11-7 8-9 5-3 1h-15l-10-4-7-6-5-9-2-6v-11l1-3h-46v16l2 12 5 14 12 18 7 7 10 7 8 4 12 5 14 2h14l13-2 12-4 15-9 12-11 9-14 5-11 3-10 2-23 25-1 2 13v20l-4 18-5 12-6 10-7 9-14 14-15 9-14 6-12 3h-35l-17-5-17-9-9-7-9-8-10-13-3-5v-2l-3-1-6-15-3-12v-27l1-10-1-7 3-1 1-4 7-14 6-10h2l2-4 5-7h2l1-3 17-13 15-7 14-4 16-2z" fill="#6D99A1"/>
<path transform="translate(695,881)" d="m0 0h7l1 30 3 6 5 4 4 1h106l8 9 8 14 7 18 4 20v13l-1 1h-143l-13-2-12-5-11-7-7-7-7-11-5-14-1-5v-15l3-12 5-11 3-5h2l2-4 6-6h2v-2h3v-2l6-3 8-3z" fill="#321E41"/>
<path transform="translate(598,623)" d="m0 0h2l-2 5-8 11-5 10-3 12v9l-1 2 2 16 5 10 3 5 5 3 2-5v-4l-1-10 2-6h1l3 16v3h2l3 10 3 5v2h2l4 7 9 10 13 9 15 7 9 2 4 1h21l16-4 14-7 4-1v-2l12-9 8-11 8-15 4-13 1-7v-14l-3-15-6-15-1-4 3 3 7 14 1 6h2l3 12 1 7v19l-2 14-5 15h2l1-2v5l-2-1v7l-17 68h4l11-41 3-10h2v-2l3 1-2 9-4 19-1 8-2 12 1 5 2 2v3l3-1 4 1 3-1 8 2h5v2l12-1 2 1-1-6-2-1h2l-3-9 3-2 8 6 8 5 23 8v2l4-1 7 3h7l5-2 4-1-1 8-4 15-6 10-7 8-14 7-16 2-36 2-18-2-10-5-5-3v-2h-2l-5-6-5-11-2-9v-19l7-25 3-12 14-31 1-7-3 3h-2l-2 5-7 9-13 13-11 7-17 8-12 3h-36l-17-5-16-8-13-10v-2l-4-2-11-13-9-17-4-11-3-13v-11l1-17 4-16 6-14 10-14z" fill="#6D98A1"/>
<path transform="translate(1105,1050)" d="m0 0h19l10 3 12 7 7 7 6 9 4 12 1 7v29l1 34 2 5 1 2h-3l-1 25-4 15-4 4-1-5 1-2h2v-4l-8 2-11 4-12 1-2-1v2l-16-2-16-5-9-7-7-9-5-3v3h-3l-2 2-1-6v-90l3-11 10-14 12-9 10-4z" fill="#5D998E"/>
<path transform="translate(1083,1304)" d="m0 0h5l5 5 4 3 6 11 7 15 3 3 3 6 1 3 3 1 4 6 4 3 2 7 2 6 1 7v4l-2 10-5 3-4 4-8 1-1 1-7 1-5 3-10 2h-6l-5-1-14-2-11-1-3-2-8-2-3-3-10-2-6-4h-5l-8-4-7-3-12-3-9-1-4-2h-11l-6 1h-8l-3 2-19 2-12-3-9-4-4-8 1-4 3-7h-6l-4 3-2-1 6-7 10-5 16-4 11-2 11-1h29l19 2 24 5h12l9-4h3v-2l8-7 4-8 1-4h2v-12l2 4 5 2 3-1 2-5 1-2h2l2-4z" fill="#6B9EA0"/>
<path transform="translate(477,1050)" d="m0 0h16l9 2 10 5 10 9 6 8 4 8 3 11-1 118-6-1-8 4-14-1-24-8-13-9-7-4v-4h-2l-3-8-2-21-1-18v-12l-1-12 1-16-1-10v-23l-2-2-4 3 2-4 8-7 12-6z" fill="#68A598"/>
<path transform="translate(502,809)" d="m0 0 10 2 17 6 11 7v2l4 2 5 4 6 7 2 4 2 1 4 7 7 12 1 6h2l4 13 2 5 5 25 4 27 2 20v7l-3 6-10 5-8 2-3 1-11 1-3 3-6 1h-7l-5-2-1-2-8 1-1 5-2-3-7-19-6-24-3-23-1-12-2-43-2-47z" fill="#6C9FA0"/>
<path transform="translate(1208,1109)" d="m0 0h1l-1 8-2 6-4 13-2 5-4 13-8 27-2-1-2 6h2l1 17 5 13 7 10 9 8 10 5 5 2h24l9-3 13-9 7-8 4-4h9l2-4 13-19 12-16 8-11 6-4-2 6-6 9-6 11-8 14-6 11-6 12-2 7v18l4 12 6 9 5 6 10 7 6 3 1 3h-3v2l-9 3-17 3h-18l-5-2-5-1-6-2-1-2-6-3-7-1-11-6-2-2-12-4-1-3-3 1-13-3h-15l-16-3-4-2v-3h-6l-10-8-12-7-5-6-3-5-2-1-1-4 10-7 8-7 5-7 5-12 2-9 1-26h3l-2-2-1-4v-32l8 4 15 10 6 3 3-9 10-23z" fill="#426C73"/>
<path transform="translate(1384,1115)" d="m0 0 14 1 12 4 11 8 7 7 7 14 2 7v19l-5 14-30 52-6 10-3-2-19 2-3-1-2 1v-2h-10l-6-2-8-5v-2l-4-2-4-6-1-8v-19l1-9v-10l4-15 4-9 7-14 5-7 4-7 7-8-1-4-4-1 10-4z" fill="#6DAEA2"/>
<path transform="translate(1098,809)" d="m0 0h9l1 9-1 32-3 59-2 23-5 24-5 16h-2l-1 2-4-9-6-3-5 2-16-5-6-2-13-4-14-3-4-2-1-6 1-24 7-30 7-20 8-16 9-13 9-10 8-7 12-7z" fill="#74AFAA"/>
<path transform="translate(760,374)" d="m0 0h69l65 3 37 3 48 6 35 6 12 3-4 1-13-3v3l-9 1-13-2h-9l-13-1-25-3-25-2-45-3-47-2h-48l-30 2-10 1h-7l-3 1-32 3-20 2-11 3-24 8-14 8-8 8-3 7-5 11-2 4-4 4-3 5-4 6-3 5-2 3 5-3 2-4 1 4-4 2-2 4-2 3h-2v2h-2v2l-3 1-5 6-6 1-2 4-11 11-1 2h-4l-12 15h-2v2h-2l-1-8-2-1-3 9-3 3 6-18 3-16 3-27 2-23 2-10 4-10 9-10 10-6 21-6 41-8 35-5 41-4 31-2z" fill="#64928F"/>
<path transform="translate(1020,925)" d="m0 0h1v21l1 2 10 3 10 2 15 4 10 4 9 2 4-2 6 4 4 7 1 3-8 19-10 19-2 1-1-7-6-1-14-5-7 1-7-3-13-2-8-3-9-2-8-2v2l-7-2-16-5-8-3-12-3 1 3-12-2-11-3-11-2-4 1h-7l-12-2-10-1-21-3-13-4-2-4-4-2-4-10v-2h-2l-1-6 4-1 2-5 4-1 21-1 17-2h20l9 2 14 5 10 5-2 3 17 6 7 1 10 6 8 3-1 2h9l-2-2 4-2 3 1-1-10 3-22 2 2 11 2 4 3 3 1z" fill="#6D99A2"/>
<path transform="translate(828,926)" d="m0 0 4 1 4 5 5 9 2 3v4h2l6 13 4 4 13 4 21 3 13 1 9 2h9l3-1 13 3 19 4v-2l12 2 8 3 16 5 6 2 1-2 10 3 7 1 9 3 12 2 7 3 7-1 17 6 4 1v9l-9 13-8 10-8 9-3-1v-7l-7 1-5-2 1-2h-9l-28-7-15-2-25-6-27-5-25-4h-18l-9-1h-13l-8-3-5-4-6-2 2-5 3-1v-14h-2l-4-20-8-20-5-8 1-3z" fill="#698DA2"/>
<path transform="translate(803,1067)" d="m0 0 34 1 18 1 18 3 14 1 10 3h3l12 1 4 2 10-2 5 2 2-1h48l-1 4h-4v2l-9 4h-2l-1 3-7 1-2 1 3 2-16 3-17 2-36 2-6 1-50 1h-58l-34-1-55-3-25-3-18-4v-2l-8-3-5-5v-3l3-1 15-1 20 1 9 1 9-2 2-1h10l16-3 28-2 7-2h9l4-1 30-1z" fill="#5A6795"/>
<path transform="translate(908,520)" d="m0 0h29l21 3 19 5 20 8 17 9 13 9 7 8 4 9v11l-4 10-7 8-10 5h-15l-10-5-10-7-17-8-17-5-11-2h-37l-9-3-11-9-4-12v-8l2-9 7-9 8-5 7-2z" fill="#331F42"/>
<path transform="translate(663,520)" d="m0 0h29l15 3 9 6 6 9 2 7v9l-3 10h-2l-2 5-8 6-10 3h-36l-16 3-15 5-16 8-13 9-6 2h-14l-10-5-8-9-3-8v-10l4-11 7-8 13-9 20-11 24-8 23-5z" fill="#321E41"/>
<path transform="translate(971,667)" d="m0 0h22l9 1 1 3v13l-2 12-5 13-5 9-8 11-7 7-14 9-10 5-11 3-9 1h-14l-17-3-15-7-9-6-10-9-8-11-6-11-5-15-1-8v-14l1-2h46v14l4 10 6 8 9 5 4 1h15l9-4 7-6 5-10 1-4v-14z" fill="#F2B97B"/>
<path transform="translate(391,1110)" d="m0 0 4 4 19 44v2l5-3 15-11h2l1 15 2 2-1 18 2 5 3 12-1 4 2 2v3h2l3 7 11 9 5 3 21 6v1h-13l-15-7-4 1-3 4h-2l-1 4h-2v2l-10 8-5 5-9 6-13 4-8 2-22 7-13 5-23 6-24 6-16 1-11 1-8-1v2l-7 1v-3l5-2 1-2 7-4 7-8 6-11 3-9v-15l-3-12-10-19-16-27-11-19-6-9-1-5 5 5 12 17 13 18 12 17 11 15 6 1 1 2 3-2 4 6 2 4 4 2 8 6 9 3 16 3 15-2 13-7 7-6 9-14 4-13v-14l-4-16-3-8-4-13v-4h-2l-5-19-3-8z" fill="#4A737B"/>
<path transform="translate(669,599)" d="m0 0h16l16 3 13 5 13 9 7 6 8 10 7 12 5 15 2 11v14l-2 9-4 13-8 15-10 12-8 6h-2v2l-12 6-12 5-10 2h-21l-6-2-9-2-16-8-11-8-9-10-3-4v-3h-2l-6-12-3-12-1-7v-21l4-16 8-16 12-13 9-8 15-8 14-4zm5 13-15 3-13 7-6 5-7 11-4 11-1 3v26l4 16 7 14 3 4h2v2l10 7 10 5 9 2h10l19-4 12-6 13-12 7-11 3-9 1-7v-24l-3-10-5-8h-2l-2-5-7-7-14-8-18-4z" fill="#FDCD79"/>
<path transform="translate(112,1241)" d="m0 0v3l-2 3v2l5 2 8 6 6 3 4 5 3 2v2l5 2 8 4 3 4 15 5 7 2h13l6-1 1-2 4 4 6 16v18l-5 14-11 15-8 6-6 1-15-7-5-2h-30l-2 2-7-7-10-15-13-21-4-11-1-4v-14l3-12 5-9 8-10z" fill="#659390"/>
<path transform="translate(642,953)" d="m0 0h1l2 8h2l-2-4v-3h3l1 3 2-2 6 14 8 10 10 8 13 6 3 1v2l11 2 3 3h10l6 4-2 4-11 2-9-1-6 2-8 2h-65l-16 3-17 3-7 3-14 3h-14l-5-1-1 2-8-11-11-20-3-7v-7l1-1h8l6 3h9l5-2 2-2 11-1 5-2 9-2 7-4 2-5 2 1v4l6-2h10l3-1 2-5 1 3 6 1v-2h5l4-2 2 1 8-4 3-1z" fill="#698DA2"/>
<path transform="translate(844,668)" d="m0 0 4 1v15l2 12 5 14 12 18 7 7 10 7 8 4 12 5 14 2h14l13-2 12-4 15-9 12-11 9-14 5-11 3-10 2-23 25-1 2 13v20l-4 18-5 12-6 10-7 9-14 14-15 9-14 6-12 3h-35l-17-5-17-9-9-7-9-8-10-13-8-16-5-16-1-7v-12l1-16z" fill="#341F42"/>
<path transform="translate(695,881)" d="m0 0h7l1 30 3 6 5 4 4 1h106l8 9 8 14 7 18 4 20v13h-63l-2-2 5-3 9-2 3-3v-4h-3l-4-6-2-9h-2l-2-6-3 7-4-5-5-6 1-2h-2l-3-4v-2h-6l-5-3-4-2-1 3h-2v2l-4-1-5-2v-2l-5-1v2l-6-1-13-4-1-8h3l-5-2-9-1v-2l-13-1-1 2-6-3 1-5-9 2-12 2v-3l7-2h-7v-3l5-2h-3l1-4-6 1-4 2-1 3h-2l-1 4-4 3h-2l1-7 4-8 3-5h2l2-4 6-6h2v-2h3v-2l6-3 8-3z" fill="#180F20"/>
<path transform="translate(598,623)" d="m0 0h2l-2 5-8 11-5 10-3 12v9l-1 2 2 16 5 10 3 5 5 3 2-5v-4l-1-10 2-6h1l3 16v3h2l3 10 3 5v2h2l4 7 9 10 13 9 15 7 9 2 4 1h21l16-4 14-7 4-1v-2l12-9 8-11 8-15 4-13 1-7v-14l-3-15-6-15-1-4 3 3 7 14 4 13 1 6v32l-4 15-5 12-6 11-7 9-13 13-11 7-17 8-12 3h-36l-17-5-16-8-13-10v-2l-4-2-11-13-9-17-4-11-3-13v-11l1-17 4-16 6-14 10-14z" fill="#341F42"/>
<path transform="translate(1367,1121)" d="m0 0 2 3-2 4-8 10-3 6-7 11-5 11-5 16-1 4v12l-1 13v17l3 7 5 5v2l5 2 5 3 14 2 5 1 20-2 1 5-10 17-5 6-2 4-12 7-12 4-6 1h-10l-13-3-11-6-9-8-7-10-4-10-1-4v-18l4-12 7-13 12-21 8-13 5-10-3 3-2-1 9-12 13-18 11-11 5-3z" fill="#5D998E"/>
<path transform="translate(265,1159)" d="m0 0h2l9 16 12 20 14 25 4 11 1 5v15l-4 11-6 10-7 8-7 4-2-1 2-7-10-4-10-8-8-4v-2l-5-2-10-6-5-2 1-2h5l5 3-5-5v-2l-8-9v-2h-2l-5-5-4-5-6-4-9-2-5-3-3-1v-4l-2-1 1-2h3l1-3 7-1 7 3 2-2v2h2l4 5 2 1 1-2 1 1-1-6v-3l1-8 3-9 4-5 2-4 5-2 10-1 9 3-4 2 8 2 2-6-2-7z" fill="#6B9EA0"/>
<path transform="translate(889,1374)" d="m0 0 1 4v3l1-2 5 2 2 4 2 1v2h2l5 5 8 4 14 4 12 1 3-1h11l7-2h10l21 4 15 5 9 5 10 4 4 3 10 4v2l10 3 2 4 8 2 2 2 6 1 8 5 15 4 6 2 23 4h15l20 1 1 1h11l10 1 3 1 10-1h9l7-2 15-1 4-1 8 1 11-1h8l10 1h16l4 2v-2l14-2 4-1 3-3h4l2-4h8l2-4 5-2 9 1 6-2 2 2-2 2v3l-3 1-1-3-7 5h-3v3h-2v2l10-4 8-2v-2h2l2-4 9-7 2-1-2 7-4 2-2 5-8 4-2 3h-2l-1 2-13 6-9 3-10 2-7 2-22 2h-20l-10 1-5-1-9 1h-30l-7 1-5 1-2 1-19 1h-9l-2-1h-5l-2-1-5 1-10-3h-12l-5-2-15-2-18-5-19-7-18-11-10-5-9-7-11-6-21-10-14-3-9-1h-43l-15-3-12-7-4-5-3-2-6 1h-3v-18z" fill="#5A8392"/>
<path transform="translate(373,1075)" d="m0 0 5 5 7 11 8 18-1 6 3 10 5 15v5h2l7 24 3 8 2 9v14l-4 13-7 11-7 7h-3l2-5 2-4h-2v-2l-5-1-1-2 5-1-5-1-6-3v-2l-7-4-7-7-7-4-4-4-2-1v-2l-4-2-2-6-2-5-2-11 1-18 2-10 1-2 3-24 5-13 6-7 9-2-2-4 1-3-1-3 2-1z" fill="#68A498"/>
<path transform="translate(1454,1235)" d="m0 0h17l11 3 12 7 9 9 6 10 3 9 1 6v11l-3 12-6 11-11 18-2 1v-3l-10 1-8 3-13-2-10-3-9-4-4-4v-2h-2l-2-15v-8l5-24 8-16 7-8 2-3h2l1-7z" fill="#6DAEA3"/>
<path transform="translate(1105,1050)" d="m0 0h19l10 3 12 7 7 7 6 9 4 12 1 7v67l-2-1h-7l-2-1v2l-3 2-9 2-10-3-6-7-5-10-5-6-7-18-5-17-2-10-1-4v-32l-1-5-4-1z" fill="#6CADA2"/>
<path transform="translate(1228,1075)" d="m0 0h5l-1 5-8 22-3 16-1 9-2 11v27l2 9 3 6v2l3 1 7 12 1 3 10 5 13 3h7l10-2 4 1h4v7l-2 6-4 4-7 8-13 9-9 3h-24l-12-5-9-7-8-9-5-9-3-9v-17h-2l1-6 2-2 2-3 7-24 3-10 9-27-1-6 9-19 7-10z" fill="#5D998E"/>
<path transform="translate(495,1232)" d="m0 0 4 1-5 2h-3l1 8-4 10-2 2-3 7-2 5-3 3-2 6h-2v2h-2l-1 4h-2l-1 5-9 15-7 12-4 3h-2l-2 4-14 16-14 11h-2v2l-10 2-6 3-9 3-7 1-9 5h-8l-1 2-6 1-4 2-12 2h-9l-7 1v2l-10 1-13 1-10 2-24 6-4 2-2 4-2 2h-3v5l-2 2-2 1-2 6v3 8l-3-3-5-12-1-8 1-11 3-1 3-4 6-2v-2l3-3-6-1 3-2h3v-2l8-2 9-3 8-1 10-2 3-1 18-2 11-2 5-2 15-3 6-1 7-1 8-3 8-2 7-2 6-2 9-1 8-4h2v-2l8-4 8-7h2v-3l4-3h2l1-4h2l2-4 12-17 10-14 5-6 6-11 5-8h2l2-14 12-1z" fill="#609194"/>
<path transform="translate(1026,1064)" d="m0 0 9 1 31 11 3 2-1 7-1 4-3 61h-1v-6h-2l-2-3-2-16-3-6-15 2h-4v-2l-5 2h-3v-2l-15 1-5-3-7-1-16-1h-8l-2 1-16 2-12 2-6 2h-8l-4 4-4 8-4 7h-2l-2 5-1 3h-3l1-5 6-16 4-20 1-8 1-1 29-4 20-5 22-8 17-9z" fill="#130A18"/>
<path transform="translate(464,1230)" d="m0 0 7 1-2 6-1 2h-2l-2 5-4 7-5 5-2 3h-2l-4 8-6 4-4 7-3 3h-2l-2 5-7 6-4 5 3-1-1 3-19 11-22 7-36 8-10 3-15 2-5 1-9 1-17 4-12 2-5 3-5 2-9 3-8 1-13 3-5 1-2-1v2l-7 2-5 2-4-2-6 1-5-5-2-4v-2l-4-1 10-15 5-1 9-2h8l14-3h9l10-4 9-1 22-4 4-1 13-1 9-2 15-2 30-7 19-5 13-5 18-6 8-4 8-8 1-2h2v-2h2l2-5 5-5 5-6h2v-2l8-7 3-5 2-1z" fill="#58858B"/>
<path transform="translate(583,1069)" d="m0 0h7l22 12 15 6 20 6 19 4 9 1 1 1 3 21 5 17 3 8-4-1-4-7-3-6v-2h-2l-3-7-1-3-8-1-7 3-11-1h-14l-16-4-3-1-9 1-9-1-9 1v-3h-3l-3 4-7 2-2 5-4 1-5 1-6 2-3-4h-4l-6 17-2 3-2 12h-1l-2-63v-4l8-4 27-11z" fill="#130A18"/>
<path transform="translate(924,1145)" d="m0 0 2 2h-2l1 3 4-1 2-2h5l1 1h6l5-1 1 2h18l12 2 14 1v2h2l1-4 3 3h6l5-1 4 3 7-2 4 2 5 4 7 3h10l6-5 3 1 3 12 1 14 2 5-3 3-2 3-1-1-2 2-7 2-13 3h-6l-1-3h-4v-7l-6 1-4-3h-16v-2l-8-2-1 3-11-1-1-1-12 1-4-2h-6l-3-2h-8l-8-2-14-1v-2l-5 2h-5v-5l-7 1 2-5 3-5 4-9 4-5 3-1 3-5z" fill="#1C1124"/>
<path transform="translate(581,1112)" d="m0 0h4l-1 4 9-2 14 1 5-1 11 3 7 2h14l11 1 7-3 8 1 4 9v2h2l6 12 1 3 5 2 8 15 9 12 10 11 14 11-1 2-16-12-8-8-5-3v-3l-3-1v-2l-4-2-5-6-4-4-2-3-4-1h-2l-7 2-8 1-11-2-8-1-4 1-1-3h-12l-2 2h-10l-5-1-9 1h-13l-5-1v-3l-6 1 1 6-10-1v2h2l-1 3-9 3h-4v2l-3-1-3-3-2-3-2 10-2 7-2-2h-1l-1 7h-1v-23l2-12 3-5 5-15 5-1 3 3 2 1 5-3h8l1-5 3-2 6-2z" fill="#180E1E"/>
<path transform="translate(728,386)" d="m0 0h7l2 2-46 7-24 8-8 6-10 9-1 3-2 1-3 8-5 5-1 6-3 4-4 6h-2l-2 6-2 4h-2v2l-4 4-7 8-6 7h-2l-2 5-9 9-8 10-5 3-5 6h-2l-2 4-5 6-7 3-4 2-11 7-11 6-11 8-3 1-1 3h-2v2l-5 5h-2v2l-3 2-5-1-1-4v-3l7-9 11-13 10-14 4-5 4-9 3 1v8h2v-2l5-5 9-11 2-1v2h2l2-4 14-14 5-2 4-5h3v-2h2v-2l9-9v-3l-2 4-5 2 2-4 5-9 3-3 3-6 3-1 1-4 5-11 5-10 5-3 5-5 14-7 21-7 11-3 20-2 21-2 13-1z" fill="#669994"/>
<path transform="translate(500,785)" d="m0 0 17 4 13 4 14 7 8 5v2l4 2 11 10 7 8 3 4v3h2l3 5v3h2l1 6h2l6 15 2 3 3 9 3 10v7h2l6 31 3 32v11l-2 3-7 1h-7l-5 1-2-12-4-36-5-27-2-9-2-5-3-10v-3h-2l-4-9-5-9-3-4v-3l-3-1-3-5v-2l-4-2-5-5-4-3v-2l-5-2-8-5-25-8v6l-3-1h2l-1-7v-14l2-5-2-1z" fill="#4B7182"/>
<path transform="translate(529,1077)" d="m0 0 2 3 4 13-1 118-6-1-8 4-14-1-2-2 5-1-6-3-1-2h8l-2-5-4-1-3-4-9-4-5-7v-17l1-10v-8l4-18 3-9 5-12 3-7 1-4 7-12 2-2 7-1h4l2-2h3z" fill="#6DADA2"/>
<path transform="translate(198,1343)" d="m0 0 4 2-1 2 3 5-3 3 2 11 2 8 1 6v3l3 10 7 13 6 10 3 3 1 5h2l8 10 9 9 8 7 10 7 9 4 19 6 17 1 17 2h8l8 1 27-1 25 1 82-1 9-2h8l7-3 17-4 13-4 14-7 14-9 11-6 6-4 9-5 14-7 13-5 16-3 11-1 17-3h17l14-2 8-3 7-5 4-5 4-7 2-1 2-4 1 3v14l-4 12-5 9h-2l6-15v-2l-15 8-12 3-11 1-28 2-27 4-14 4-10 5-22 13-12 8-18 11-11 5-18 6-27 6-8 1-23 1h-142l-29-4-12-4-16-9-11-9-7-8-8-9-12-17-6-9-10-17-8-14-7-14-1-6 4-7 6-5 2-3z" fill="#5A8392"/>
<path transform="translate(451,1065)" d="m0 0 3 3v25l1 14-1 11 1 18v12l1 11 2 21 2 6v2h2v4l4 1 13 9 9 4 18 6 14 1 8-4 5 1 1-112h1l1 119v106h-1l-1-10-1-83-3 3h-2l-1 2-3-7v-10l-10 7-8 5-5 2-10 2h-11l4-2-21-6-9-7-6-5-2-4v-3h-2l-1-3-2-2 1-5-3-11-2-7 1-16-2-2-1-16 1-54 4-13 6-9z" fill="#5C8B91"/>
<path transform="translate(676,1099)" d="m0 0 25 1 21 1v1l-12 1-3 1 2 3v6l-1 2h2l3 6v4h-2l2 5h3l3 8 5 4v4l5 10 8 4 5 1 3 6v2h2l2 6 6 1 4 3v-2l4-1 6 3 2 4-1-3 4-4 9 3 1 2 10-1 7 5-2 6-7 3-4 1-2-3h-2v3l-8 4-5-3-9 2v-2l-6-1-6-3h-4l3 5 11 7 13 6 7 2v3l-3 1-19-5-14-6-15-9-10-8-11-10-11-14-8-14-7-16-4-14-2-11z" fill="#507788"/>
<path transform="translate(938,613)" d="m0 0h33l11 2 15 8 6 5 8 8v3l3 1 9 19 3 2 1-2v2h2l1 5 1 13v22h-1l-1-20-1-13-9 1h-16l-1 2v-3h-54l-51-1 2-4 3-3h46l1-7-4-1-2-10-9-1-4-8-2-5 1-7 1-4z" fill="#6B9EA0"/>
<path transform="translate(1109,785)" d="m0 0 1 4-2 19-16 4-15 6-13 9-9 9-11 16-8 16-7 20-7 30-3 17-1 3-5-1-5-3-8-1-1-1 1-17 5-25 7-22 5-13 6-12 7-11 10-13 8-8 12-9 17-9 17-5z" fill="#597C90"/>
<path transform="translate(703,880)" d="m0 0h33l13 1 17 4 16 6 14 8 13 10 12 11-1 3h-105l-7-3-5-6-1-3v-29z" fill="#EFB97B"/>
<path transform="translate(1402,1118)" d="m0 0 5 1 9 5 10 9 6 9 4 10 1 4v19l-5 14-15 26-4 7-1-3-1-4-1-3-3 1-14-1-7-5-5-9-1-13 2-14 3-12 7-14 5-9 5-6h2l1-6-1-4z" fill="#77BCAF"/>
<path transform="translate(1208,1109)" d="m0 0h1l-1 8-2 6-4 13-2 5-4 13-8 27-2-1-2 6h2l1 17 5 13 7 10 9 8 10 5v2l-5 2-4-1-9 2-10 2-16-2v-2l-6-1-6-3-3-3-4-2-5-5-4-2 1-4 7-8 6-12 3-12 1-26h3l-2-2-1-4v-32l8 4 15 10 6 3 3-9 10-23z" fill="#3C606E"/>
<path transform="translate(294,1090)" d="m0 0 4 1 1 4 2 10 2 5 2 9 4 8 3 14 4 11v4l2 1 4 16 5 12 1 3 3 1 3 7 4 7 7 3 5 3 5 1 11 4 13 4 5 3 11 2v5l-2 3 2 1-9 6-6 3-17 2-19-4-10-6-6-5-7-9-3 2-1-2 1-7-15-47-13-42-2-11 1-13 3-7z" fill="#59928D"/>
<path transform="translate(1250,1061)" d="m0 0h4v9l-6 10-6 17-2 17-1 23 1 12 3 16v6l3 1 3 6 5 4 11 4h7l11-3h7l-1 7-6 19-1-4-6 1-2-1-10 2h-7l-13-3-10-5-9-16-3-3-3-6-2-12v-24l2-11 1-9 4-19 7-19 2-5-6 2-4 2 6-7 10-7z" fill="#68A598"/>
<path transform="translate(581,914)" d="m0 0 4 3 4 32 1 17-3 6-10 5-8 2-3 1-11 1-3 3-6 1h-7l-5-2-1-2-8 1-1 5-2-3-7-19-3-11 1-10v-6h3l2 4-1-3v-2l6 2-2 5h3l-1-3h5l5-4h8l5-5 4-3 10-1 12-4 3-3h4z" fill="#6E9AA1"/>
<path transform="translate(127,1235)" d="m0 0h19l10 3 11 6 13 10 18 14 15 11h9l14 8 10 4v2l-15 2-9 4-14 3-2 4-3-3-6-16-3-3-7 3h-13l-10-3-12-4-3-3v-2l-6-2-4-1-4-5-6-5v-2l-6-2-11-8-3-3 4-7z" fill="#4A747B"/>
<path transform="translate(1255,1060)" d="m0 0h13l4 2 1 5-5 10-5 9-3 12-1 9v24l4 11 6 8 12 4h7l4-2 5 6-1 10-5 15-22 4-7-1-9-4-6-5-2-5-3-3-1-8-2-12-1-17 1-21 2-14 6-17 6-10 1-9z" fill="#6DAEA3"/>
<path transform="translate(460,1226)" d="m0 0 6 3-2 1-2 7-3 1-2 5-7 7h-2v2h-2l-2 4-6 7h-2l-2 5h-2v2h-2l-2 4-7 7-8 4-18 6-20 7-32 8-16 3-9 1-9 2-14 1-13 3-13 2-8 1-10 4h-11l-12 3h-8l-7 1-2 1-5 1-8 13-9 10-4 1v-2l5-5 9-13 4-12 1 2h2l1-5 5-5 15-4 12-2 5 1 6-3 7 1 6-2 18-1 2-1 25-2 2-1 14-2 20-4 11-4 20-4 9-4 15-4 20-9h3v-2l8-6 7-6 4-5 4-2 2-2 8-10 5-1z" fill="#527E86"/>
<path transform="translate(1086,1293)" d="m0 0 4 1 8 5 1 2 6 3 7 10 4 7v2h2l5 6v2l5 2v2h2v2l3 1 9 15-1 2-2-1v3h2l7 10 5 11-1 5-1 3h-2l-2-4-3 7-2 3h-2l-2 6-5 6-6 2v2l-6 4-9 2-10 5h-18l-15-5-8-2-6-2 1-3-9-2-15-6-11-4-2 1-14-5-8-3-12-3-9-1h-18l-16 1-5-1 4-2 11-1 3-2h11l3-1h11l4 2 19 3 5 3 11 4 3 1 6 1 3 3 10 2 5 4 7 2 10 2 12 1 9 1 1 1 10-1 8-2 3-2 7-1 1-1 8-1 3-1 1-3 4-2 2-8-1-2 2-1-2-5v-7l-3-7-2-5-5-5-7-8-2-7-3-1-13-26-7-5-1-3-6 2-2 3h-2l-2 5-4 4-5-2-2-5v-5l8 1 7-10z" fill="#5F9194"/>
<path transform="translate(1377,1116)" d="m0 0 13 1 1 4-8 11-7 7-4 7-4 9-4 11-3 11-1 1-1 10-2 9v22l4 12h3l3 3v2l6 2h9l14-4 5-1 2 1-1 7-6 10-3-2-19 2-3-1-2 1v-2h-10l-6-2-8-5v-2l-4-2-4-6-1-8v-19l1-9v-10l4-15 4-9 7-14 5-7 4-7 7-8-1-4-4-1 10-4z" fill="#68A498"/>
<path transform="translate(1093,1054)" d="m0 0h6l2 5v33l2 7 4 16 6 17 4 9 7 10 2 5 5 5v2l11 2 11-3v-2h10l1 3-2 13-12 3-4 2-12 1-15-3-4-2-3-5-8-7-3-5-3-8v-4h-2l-2-7-4-13-3-15-1-9-4-20-3-14-4-1 6-7 10-7z" fill="#68A598"/>
<path transform="translate(751,1103)" d="m0 0h88l9 1 1 4-3 4-1 6h-2v6l-8 7-9 7-3 2-8 1-5 3-5-2-7 1-18-4-10-4-5-3-1-3-8-5-5-6-4-10 1-1-2-2z" fill="#4D6878"/>
<path transform="translate(760,374)" d="m0 0h69l65 3 37 3 48 6 12 2v1h-15l-10 1h-10l-8-1-21-2-8-1-41-3-31-2-26-1-11-1-3-1-1 2-7-1h-11l-6 1h-26l-19 2-5 1h-9l-9 1-12 1-15 2-16 2-5 1-26 4-16 3-16 4-7 2-2-1v2l-12 2-9 3-12 5-6 4-4 5-7 4-3-1 1-6 6-9 9-8 8-4 28-7 38-7 37-5 33-3 31-2z" fill="#4F8180"/>
<path transform="translate(672,646)" d="m0 0h14l10 4 8 7 5 10 1 4v10l-4 12-7 8-10 5-3 1h-14l-10-4-5-4-6-9-2-5-1-12 3-11 6-8 5-4 6-3z" fill="#601C46"/>
<path transform="translate(1104,1236)" d="m0 0h5l7 10 9 11 11 12 6 4v3l4 2 9 7 9 6 13 9 21 7 17 5 15 5 9 2 16 4 14 3 13 1 9-2 12-1 21-4 6-2h8l6 2 2 5 9 19 4 11 7 8 5 5v4l-6-2v-2l-4-2-9-11-5-10v-3h-3l-4-6-4-2h-11l-14 1-9 2-15 1-7-1-11-1-13-2-12-2-7-3-16-4-6-1v-2l-9-2-12-3-6-1-11-3-11-7-4-5-4-1-4-4-8-6-7-6-13-13v-2l-3-1-7-10-5-6-7-11z" fill="#4F7C80"/>
<path transform="translate(759,750)" d="m0 0 3 1-2 9-4 19-1 8-2 12 1 5 2 2v3l3-1 4 1 3-1 8 2h5v2h6l3 3 10 2 2 2 12 3 9 3v2l4 1v1h-12l-1 2h4v2l18 2v3h-2v2l-4-1-1 2-4 2-2 2-7 2-1 1-10 1h-10l-15-2v2h-7l-11-3-8-5-7-10-3-7-1-6 1-4v-9l7-24 8-29h2z" fill="#5B8492"/>
<path transform="translate(1425,1251)" d="m0 0v3l-5 5-7 9-2 8h-2l1 4-3 17v17l2 9 3 15-6 1 3 7 7 7-1 3-9 1h-8v2l-6-1-2-2v-3h3l-8-4v-2l-4-2-3-4-3-3-1-7-2-12-1-4v-15l1-2h2l-4-8-3-2 2-4 10-6 7 1 9-6 14-11 8-6 6-3z" fill="#4D6879"/>
<path transform="translate(1120,1050)" d="m0 0 9 1 14 7 10 9 6 9 4 12 1 7v30l-1 22-3-4-6-12h-10l-5-3-8-8-5-8-3-7-4-14-1-2-1-20 3-7z" fill="#78BCAF"/>
<path transform="translate(1190,1171)" d="m0 0 1 3h7l8 11v2h3l2 5 9 11 8 5 9 6 15 4h11l6-1 5 1 1 6-7 7-14 9-7 2h-24l-12-5-9-7-8-9-5-9-3-9v-17h-2l1-6 2-2 2-3z" fill="#57848A"/>
<path transform="translate(921,1100)" d="m0 0h3v8l-4 20-6 16-10 19-13 16-9 9-14 10-14 8-19 7-5-1 2-2 6-1v-2h3v-2l12-5 10-7h2l2-5 5-4 2-5-2-2 3-7h-2l1-5 7-17v-8l1-3h3v-8l3-4 3-9 1-6h2l2-7h-5v-1z" fill="#4F7C80"/>
<path transform="translate(477,1050)" d="m0 0h16l3 1v2h2v4l-8 3 1 4-4 4-2 5-6 8-4 9h-2l-2 4-3 2v9l-3 22-1 7-1 8 1 6-1 12h2l5 20 7 11 7 6 5 3 5 2 3 2 6 2 7 4v1l-7 1-21-7-13-9-7-4v-4h-2l-3-8-2-21-1-18v-12l-1-12 1-16-1-10v-23l-2-2-4 3 2-4 8-7 12-6z" fill="#5D9A8E"/>
<path transform="translate(775,383)" d="m0 0h52l61 3 38 3 34 3 9 1 15 1 12 1 4 1h9v-3l21 3 9 4 7 3v2h3l5 6 4 4 5 12 3 14 5 46 3 15-1 4-4-17-4-39-2-17h-2v2l-5-2-8-16-6-2-5-4v-2l-14-2-1-3h-7l-6-2-1 2-7-2-4 1-7-1-33-1-20-1-19-3-28-2-26-2-44-2v-2l-2-1 1 3h-11l-13-2h-5v-1h-30l-10 2-2-1-3 1-26 2-7 1v-2l20-3h5v-2l22-2z" fill="#6B9FA0"/>
<path transform="translate(660,593)" d="m0 0h16l17 3 13 5 13 7v2l-5-2-13-5-16-3h-16l-17 4-16 8-9 7-9 9-6 9-6 12-4 16v21l2 10-1 4-4-15-1 2 1 12 1 2-3 3-1 2-5-2-3-3-4-9-2-4-2-17 1-2v-8l4-14 6-11 9-13-2-1 7-7 12-9 18-8 16-4z" fill="#5A6895"/>
<path transform="translate(1296,1223)" d="m0 0 2 4 8 4 8 10 6 8 2 4 6 2 8 6 2 3 8 2 9 2h16l5-1h9l-1 4-4 5-2 4-12 7-12 4-6 1h-10l-13-3-11-6-9-8-7-10-4-10-1-4v-18z" fill="#58848A"/>
<path transform="translate(1020,925)" d="m0 0h1v21l1 2 10 3 10 2 15 4 10 4 9 2 4-2 6 4 4 7 1 3-8 19-10 19-2 1-1-8 3-1-2-4v-2l-5-3-3-3-4-2-15-3-15-5-13-5-3-3 1-9 2-6 1-12v-8z" fill="#6C9FA0"/>
<path transform="translate(827,735)" d="m0 0 5 1 5 3 4 11 7 23 7 28-2 6-3 1h-7l-12-2-11-6-8-6-5-6-2-8v-12l2-13 6-9 11-10z" fill="#74B0AB"/>
<path transform="translate(208,1239)" d="m0 0h13l10 3 4 4v2l9 3 11 7v2l5 2 5 3 8 6 5 2 5 3-1 7v3l-14 5-5 1h-15l-12-4-11-6-6-3 2-1-10-14-7-13-2-7h2l1-3h3z" fill="#5D8B92"/>
<path transform="translate(1450,1236)" d="m0 0h8l1 2-2 6-4 4-7 9-4 8-4 10-3 16-1 10 1 17h2l1 4 5 2 9 4 13 3 9 1 9-3h8l-1 7-8 10-8 7-12 6-10 2 2-1-1-7 1-2-7-1-9-5v-2h-2v-2l-3-1v-3h-2l-2-6-2-1-3-9-3-6v-15l5-25 5-14 2-2 3-7 4-7 2-1v-5z" fill="#59928D"/>
<path transform="translate(891,1103)" d="m0 0h5l-1 5-1 2h-2l-1 9-4 9-1 1v6l-1 2h-3v11l-7 17-2 5h2l-2 7 2 3-4 6-9 9-6 4-12 6h-3v2h-3v2l-6 2 2 2-11 3-16 2h-15l-13-2 1-3-11-4-16-8-5-4-3-6 7 1 10 4v2l9-3 5 3 7-4 1-3 4 2 1 1 7-1-1 3h-3l-1 2-5 1-3-1v2h-5l-1 2 2 2 6-1 2 1h7l9-3 7 1 1 2 11 1 4-5 4-4 2-3 12-3 5-4 3-9 8-9 6-8 4-6 5-8 5-10 4-13 2-9v-2l-2-2 2-5z" fill="#4A737B"/>
<path transform="translate(684,878)" d="m0 0 4 2-1 1 4 2-10 3-4 3h-3v2h-3v2l-8 7-2 3h-2l-2 5-5 11-3 12v15l1 5v8l-2-2v-3l-2 1 1 4v2h-2l-3-4-4 4-8 4-4-1-4 2-3-1v2l-6-1-2-11-2-23v-8l4-1 1-3 1 4 2-3 8-1-1-4 3 1v-2l10-10 7-4 5-3h3v-2l9-3 9-8 5-3 7-3z" fill="#6D9AA1"/>
<path transform="translate(663,520)" d="m0 0h29l15 3 9 6 6 9 2 7v9l-3 10h-2l-2 5-8 6-10 3h-36l-14 2v-2l-14 2h-7l3-2 13-5 13-2 2 1v-2l16-2h9l16 1 6-2v-2l6-5 3-7v-9l-3-3-1-6-5-2v-2l-7-1-6-2-28-2-12 1-10 2-8 2-7 4-5 2-19 7-12 6-7 4-10 7h-2v3l-3 3-1 2h-3v4h-2l2 11 3 6 3 2v2l4 1 3 1 1 2 6 1 10-3 9-4 5-3 2 1-4 4-7 8h-2v2l-2 1h-14l-10-5-8-9-3-8v-10l4-11 7-8 13-9 20-11 24-8 23-5z" fill="#30163C"/>
<path transform="translate(820,922)" d="m0 0 6 5 10 16 8 20 4 20v13h-50l3-3 21-4h12l3-3-1-5-6-7-4-3-2-7-3-1-2-11-3-2v2h-6l-4-6-6-3-1-4-5-1-1-3-13-3-20-2-27-2-13-2v-2l65-1z" fill="#130A18"/>
<path transform="translate(389,1120)" d="m0 0 1 3h2l1-2 4 8 3 11v5h2l7 24 3 8 2 9v14l-4 13-4 7-2-1 2-5v-6l-5-2-3-1-2-3-9-4-10-5-3-9-1-10v-17l4-9 3-7 5-4 4-8z" fill="#73AFAA"/>
<path transform="translate(1329,1163)" d="m0 0 1 2-8 13-6 11-8 14-6 11-6 12-2 7v18l4 12 6 9 5 6 2 1v2l-8-1-9-2-1-3-9 1-8-4v-2l-6-2-4-3v-2h-2l-3-7-3-5 1-7-6-2-1-2 12-7 10-9 4-6 4-1h7l2-4 13-19 12-16 8-11z" fill="#3C616F"/>
<path transform="translate(1454,1235)" d="m0 0h17l3 2-1 6-8 7-4 2v2l-5 4-4 9-3 11v18l5 10v2l5 2 2 1v2l14 2 8-1 2-2 9-3 4-2 5 1v7l-11 17-1-3-10 1-8 3-13-2-10-3-9-4-4-4v-2h-2l-2-15v-8l5-24 8-16 7-8 2-3h2l1-7z" fill="#68A598"/>
<path transform="translate(532,1090)" d="m0 0h1l1 13-1 31v56h-9l-9 2-10-3-6-8-1-5 2-10 2-12 3-9 2-8 6-12 4-1h2l2-2 4-2 4-15 2-10z" fill="#73AFAA"/>
<path transform="translate(447,1070)" d="m0 0 2 3 1 43v20l1 13v19l-1 16 2 14 1 5h2l2 5 4 2 4 5 1 4 4 2v2l4 1 14 4h9l5-1-5 5-6 2h-11l4-2-21-6-9-7-6-5-2-4v-3h-2l-1-3-2-2 1-5-3-11-2-7 1-16-2-2-1-16 1-54 4-13 3-5z" fill="#527D82"/>
<path transform="translate(259,1145)" d="m0 0 5 5 12 17 13 18 12 17 11 15 6 1 1 2 3-2 4 6 2 4 4 2 8 6 11 5 9 3-2 4-6 4-24 8-16 4-6 2h-2l-2 5-6 7-8 5v-3l6-5 5-7 4-8 3-9v-15l-3-12-10-19-16-27-11-19-6-9z" fill="#3C616F"/>
<path transform="translate(894,668)" d="m0 0h60l1 3v11l-4 11-7 8-9 5-3 1h-15l-10-4-7-6-5-9-2-6v-11z" fill="#601C46"/>
<path transform="translate(1440,1240)" d="m0 0h3l-1 5h-2l-1 4-4 6-2 5-4 8-6 25-1 7v15l5 10v5l4 2v5h2l1 3 2 1v2h2v2l5 2 11 4v5l-5 1-14-2-5-1-8 2-3-1-3-3-5-3-5-6-1-5 3-1 4 1-3-10-3-14v-18l3-18v-2h2l1-8 8-10 3-1 1-4-4 3-2-1 13-10z" fill="#508481"/>
<path transform="translate(1073,1135)" d="m0 0 3 1 4 8 3 9 5 13 5 8 3 5 7 6 9 4 4 2v2l13-1v-1l15-2 11-5 8-1v-20l1-5 2 4 2 3h-3l-1 25-4 15-4 4-1-5 1-2h2v-4l-8 2-11 4-12 1-2-1v2l-16-2-16-5-9-7-7-9-5-3v3h-3l-2 2-1-6v-26l2 3 1-1 1-10z" fill="#59928D"/>
<path transform="translate(270,1167)" d="m0 0 4 4 14 24 14 25 4 11v18l-2 4-3-11-3-6-2-2-7-1-3 1-12-5-16-12v-2l-4-2-7-7-1-11 3-5h3v-2l4-1 4 1 5-1 4 4 3 1v-18l-2-5z" fill="#73AFAA"/>
<path transform="translate(671,388)" d="m0 0h9l-2 2-20 3-7 2-8 1-9 3h-2v2l-19 5-14 6-9 3-14 8-5 7v5h-4v10l-8 15-4 8-1 1-2 9-3 5-2 3-6-2v9l-4 5 1-12 3-27 2-23 2-10h2l1-2 1 2 5-3h2l1-3h2l2-4 12-6 7-3 13-3h6v-2l18-4 17-4 35-5z" fill="#5C8991"/>
<path transform="translate(1349,1475)" d="m0 0 2 1-9 7-9 4-9 2-25 4h-14l-5 2 8 2v1h-176l-9-2v-2l-19-5-3-1 1-4 2 1 3-1 18 2 17 1 8 2 46 2h22l13-1h28l3-1h21l5-1 44-1v-2l11-1 11-3h5l1-2z" fill="#55708D"/>
<path transform="translate(536,1308)" d="m0 0 3 1 5-1v3h2l4 8 7 4 5-2 13-3 5 2-4 1v2h5l1 2-2 2-2 1 3 1-1 4-1 3 49-4 19 1 7 1 2 2 4 1 2 5h-45l-25 3-17 4h-12l-9-3-7-4-8-10-3-8z" fill="#30153C"/>
<path transform="translate(391,1110)" d="m0 0 4 4 19 44v2l5-3 15-11h2v13l-4 5 4-2 1 2v26l2 11 2 4v4l-8-1-20 9-6 7h-2l-2 4-5 3v-3l5-5 6-10 4-13v-14l-4-16-3-8-4-13v-4h-2l-5-19-3-8z" fill="#3C616F"/>
<path transform="translate(950,523)" d="m0 0h8l19 5 20 8 17 9 13 9 7 8 4 9v11l-4 10-7 8-10 5h-15l-10-5-10-7-17-8-17-5-11-2h-37l-6-2-1-3-4-2 3-3 1 2 6 2 22-3 1 1 10 2h8l14 3 3 1 4 1 11 3 5 4 5 2 2 1v2l4 1 3 1v2l4 1 2 1v2l5 2 7 1 9-3 4-2 1-4 4-2 2-5 1-11-4-6-9-9-8-6-5-4-12-5-3-2v-2l-6-1-3-2-7-3-15-5-6-1z" fill="#30153C"/>
<path transform="translate(127,1235)" d="m0 0h8l1 5 2 4h2l3 5 6 7 11 7 9 4 16-1 6 9 5 9-9 3h-13l-10-3-12-4-3-3v-2l-6-2-4-1-4-5-6-5v-2l-6-2-11-8-3-3 4-7z" fill="#508581"/>
<path transform="translate(291,1101)" d="m0 0 4 4 7 26 7 22 4 13 3 7 3 13 3 9 3 14 3 5 10 6 7 3v2l4 2 5 2 11 2 3 1v2h6l3 3v3l3 1-17 2-19-4-10-6-6-5-7-9-3 2-1-2 1-7-15-47-13-42-2-11v-6z" fill="#538783"/>
<path transform="translate(773,696)" d="m0 0h2l1 27 1 18-2 18-1 5-1 14v11l1 11h-4l-2-1-3 9-4 2-5-1-4-7 1-12 2-9 2-13 2-8 2-9-2-1-1 2 1-12 1-8 2-6 1-6 6-17 3-6z" fill="#679A95"/>
<path transform="translate(788,378)" d="m0 0h16 3l23 1 19 1 31 2 39 3 8 1 26 2 8 1h11l4-1 22 1 25 5 3 2-9-1-8-2v3l-9 1-13-2h-9l-13-1-25-3-25-2-45-3-47-2h-48l-30 2-10 1h-7l-3 1-32 3-20 2-9 2-24 4-8 1 2-2 9-3 11-2 10-2 16-2v-2l22-3 24-2h8l13-2 9-1h27z" fill="#59928D"/>
<path transform="translate(933,591)" d="m0 0 25 3 15 5 14 8 6 5-1 2-10-6-7-4-9-2-13-3h-12l-12 1v2h-3l-1 2v-2h-2v2h-8l-1 2h-4l-15 7-6 4-10 9-10 11-6 10-2 1-5 9-2 1-1 4 2 1-1 4h-6l-1 2-3-1-1 21v12l3 15 6 15-1 2-5-10-4-13-1-5v-27l1-10-1-7 3-1 1-4 7-14 6-10h2l2-4 5-7h2l1-3 17-13 15-7 14-4 16-2z" fill="#649290"/>
<path transform="translate(1152,628)" d="m0 0 4 5 11 9 10 12 8 13 6 15 1 5-5-2-2-3-2 4-2 14-4-4-1-4h-2l2-6-4-11-2 3-2-4v-7h2l1 2-1-9-1-3h-2l2 9-5-1-3-3v3h-2v2h-3l-1 2 6 1-2 1 3 10 3 6 1 6 1 2v10l4 4-2 1v5l-3 9h-1l-1-21-6-18v-3h-2l-5-8-1-4-2-2h-3l-7 3-3 4h-2l-1 3-4-2 7-6 7-14 9-24z" fill="#68A498"/>
<path transform="translate(740,803)" d="m0 0h2l1 12-1 4 3 9 3 6 6 8 9 4 15 3v-2h8l7 1h10l10-1 5-2 4-2 2-3 6-1 2 1v-2l2-2-18-3v-2h-4l1-3h11l-3-1-2-2-9-3-10-2-2-2-10-2-3-4 10-1 11 2 17 4 6 1 9 3h15l-3 7-11 11-4 6-12 6-12 2-10 1h-27l-15-3-11-7-7-7-4-9v-18z" fill="#688CA3"/>
<path transform="translate(110,1323)" d="m0 0 15 1 9 3 2 1 10 1 5 2 8 1 7 3 18 5 4 6 2 2-10 8-6 1-15-7-5-2h-30l-2 2-7-7-7-10-1-6h2z" fill="#5D8B91"/>
<path transform="translate(663,577)" d="m0 0h28l8 1-3 3 2 1 13 2 3 2v2l4 2 7 6 10 7 9 11 5 8v5l-4-1v-2l-5-1v-2h-2l-1-4h-3l6 9 7 9-1 2h-2l-7-10-6-7-12-9-1-3-19-9-15-4-8-1h-23l5-5 3-2 1-3 7-1 4-1 14 1 5 1v-4l-2-1h-24l-18 3-4-1 12-3z" fill="#6C97A0"/>
<path transform="translate(1433,1371)" d="m0 0 3 1-6 7-7 10-10 16-18 27-12 17-18 22-7 7-13 9-10 5-13 4-17 3h-183v-1l160-1-4-3 10-2h11l15-2 13-2 12-4 11-8 7-6h2l1-3h2l2-4 7-8 15-20 28-42 9-13 3-1 2-4z" fill="#607297"/>
<path transform="translate(1399,1117)" d="m0 0h3v2l3 1 1 6-2 4h-2l-2 4-4 5-10 20-3 14-2 12 1 13 5 9 6 4 14 1h3l3 4-1 8-4 5 1-8-6 1-12 4-8-3-6-4-5-6-2-6-1-11 2-13 3-11 3-12 4-9 5-10 4-4 4-7 6-5 1-1v-5h-2z" fill="#74B0AB"/>
<path transform="translate(1255,1060)" d="m0 0h13l4 2 1 5-5 10-5 9-3 12-1 9v24l4 11 6 8 12 4h7l4-2 5 6-1 10-2 3-1-1v-6l-9 1-8 4-8-2-8-5-1-3h-2l-4-8-3-12v-25l4-25 9-19 3-3h2l-1-5-12-1z" fill="#74B0AB"/>
<path transform="translate(313,1068)" d="m0 0h3v2h2l-2 6-3 10v11l3 12 1 14h-1l1 7 3 9 4 14 1 9 3 6v6l1 2h-2v4l4 2v3l-3 3-5-10-5-15-2-7-6-18-2-11-5-10-2-10-2-7-1-8-4-1-2 1 2-6 8-11 3-3 7-3z" fill="#5D9A8E"/>
<path transform="translate(748,823)" d="m0 0 12 2h31l18 2 4 2-1 2h4v2l18 2v3h-2v2l-4-1-1 2-2 1-15 1h-37l-14-4-8-7-3-7z" fill="#597C90"/>
<path transform="translate(155,1305)" d="m0 0h7l21 3 7 2 4 2 6-2h4v11l-5 14-9 12h-2l2-9 1-5-24-8-12-5-3-1v-2l-6-1-3-4v-3l3-2z" fill="#669994"/>
<path transform="translate(1186,1178)" d="m0 0h1v14l7 2 7 11 5 7 3 2v2l4 2v2h2l3 3 10 5 7 3 17 1 2 4-1 2 3 1-9 3h-24l-12-5-9-7-8-9-5-9-3-9v-17h-2l1-6z" fill="#54708C"/>
<path transform="translate(197,1208)" d="m0 0 2 1v2l5 1 3 2 11 3 6 5 5 5 2 4h2l9 11 2 3 2 4-7-2-5-1-3-3-10-3-13-1v2l-3 1-2 3 1 5-3-4-15-26v-4l7-3v-3z" fill="#679A95"/>
<path transform="translate(112,1241)" d="m0 0v3l-2 3v2l5 2 8 6 6 3 4 5 3 2v2l5 2 8 4 3 4 15 5 7 2h13l6-1 1-2 4 4 1 5-6 3-1 1h-13l-12-2-19-7-13-7-7-5-8-4-1-3-5-1-1 2-3-3 2-2v-3l-8-5-2-6 6-7z" fill="#5D8B91"/>
<path transform="translate(1492,1245)" d="m0 0 4 2 7 7 6 10 3 9-1 4-3-3v-2l-6-1v8l-3 5-8 5-10 2-5-2v-2l-4-2-2-10 2-6h2l2-5 9-8 7-2 2 1-1-4v-4z" fill="#77BCAF"/>
<path transform="translate(240,1466)" d="m0 0 5 2 9 7 13 8 12 4 5 1 16 1h13l17 1 21 1 10 1 5-1 2 1h52l26-1v1h-5v5l-1 1h-145l1-3 3-1 1 1h5l3-2h-6l-2 1v-2l-18-2-11-2-20-10-3-3-2-1v-2h-3l-3-4z" fill="#55718D"/>
<path transform="translate(232,1460)" d="m0 0 3 3v2l5 1 3 4v2h3v2l6 2 5 4 7 4 11 4 22 3 3 1 1 1v-1h9l-3 4-7-1v2l-2-1h-2l-1 2 145-1 1-5 6-1 3 2v-2l13-1v1l25 1 14 2-4 2-10 2-11 1h-183l-5-1-13-2-16-6-10-6-11-9-10-11-1-3 3 1z" fill="#617999"/>
<path transform="translate(1105,1050)" d="m0 0h15l1 1v11l-3 7 1 20 4 11 3 9 4 8 9 10 5 3h10l4 7 5 10v9h-1l-1-7-5-6v-2h-5l-7 3h-7l-9-10-4-7-3-7-4-8-6-27v-13l1-12-1-9h-6z" fill="#74B0AA"/>
<path transform="translate(833,753)" d="m0 0 5 1 4 4 3 9v3h2l4 14v11l-1 1h-13l-2-1-9-1-5-5-1-3v-14l3-10 7-8z" fill="#76BBAE"/>
<path transform="translate(389,1120)" d="m0 0 1 3h2l1-2 4 8-1 2-1-1-1 4 2 15-4 12h-2v2h-2l-3 9-1 5 2 10 4 7 4 2v2l8 2 3 1 2 9-1-2-5-2-3-1-2-3-9-4-10-5-3-9-1-10v-17l4-9 3-7 5-4 4-8z" fill="#6CADA2"/>
<path transform="translate(676,1099)" d="m0 0h10l5 2 4 4-1 5h2v5l-3-1v4h-2v9l5 16 8 17 6 10 6 7v2l4 1 6 8 1 3-3 1-11-9-11-12-10-15-9-19-5-17-2-11z" fill="#537E87"/>
<path transform="translate(644,515)" d="m0 0h2v2l-4 1-1 3 6 1v1l-24 6-17 6-22 12-13 10-4 5-4 11-1 10h-1v-11l1-4-3 1-1-6 4-7 8-7v-2l-3-3 1-5 5-5 6-4 11-1 2 4h4v-2l6-2 12-7 12-4 5-1 10-1z" fill="#67A199"/>
<path transform="translate(1485,1240)" d="m0 0 7 4 3 4-1 7-9 2-8 7-3 5h-2l-1 7 2 9 3 2v2l6 1 9-2 9-6 2-11 6 1 5 7v11l-2-4-1-3-4 1-2 4-7 6-10 6h-11l-6-2-5-4-4-8 1-12 8-16 10-7 8-2v-6l-3-1z" fill="#74B0AB"/>
<path transform="translate(447,1070)" d="m0 0 2 3 1 43v20l1 13v19l-1 22-4-1-3-13-1-8-1-11 1-5-1-25-1-17v-25l-2 2 1-6 4-8z" fill="#508481"/>
<path transform="translate(1070,1207)" d="m0 0 9 3 2 2 5 2 11 5 7 2h23l4-2 8-2 6-3 3 1 1 6-7 6-7 4-8 2h-19l2 2h-3v2l-5-1-6-4v-2l-7-2-1-2-7-4-6-2 1 6-4-1-2-5 1-4z" fill="#4F7788"/>
<path transform="translate(1081,1188)" d="m0 0 7 6 5 4 16 5 14 2 2 1v-2l14-1 11-4 4-1h4v4h-2v6 4l-6 8-3-1v-7l1-2-3 3-10 2-3 2-17-1-14-3-9-4-3-3-5-2-3-3v-3l-3-1z" fill="#58848B"/>
<path transform="translate(194,1266)" d="m0 0 4 2 15 11h9l14 8 10 4v2l-15 2-9 4-14 3-2 4-3-3-6-16-10-17 1-2 2 1 4-1z" fill="#4B757B"/>
<path transform="translate(1450,1236)" d="m0 0h8l1 2-2 6-4 4-7 9-4 8-4 10-3 16-1 10 1 17h2l1 4 5 2 9 4 13 3 9 1 9-3h8l-1 7-4 4-1-4-8 1-4 1h-10l-13-3-12-6-3-2-3-5-2-4-2-6v-17l3-17 3-10 8-17h2l2-4 5-6 1-3z" fill="#5D9A8E"/>
<path transform="translate(1336,1195)" d="m0 0 2 1-1 15v17l3 7 5 5v2l5 2 5 3 14 2 5 1 20-2 1 5-5 9-1-4-13 5h-16l-10-2-6-3-5-4 1-2 1-3-4-8-2-7-3-6v-11l2-8z" fill="#679A94"/>
<path transform="translate(921,1100)" d="m0 0h3v8l-4 20-6 16-10 19-9 11-4 2-12 12h-2l2-4 8-9 3-3 8-16 5-13 2-10v-16l5-2v-10l2-4z" fill="#518482"/>
<path transform="translate(975,1332)" d="m0 0h6l2 1 15 2v1l-5 1v3l-1 1-38 1-18 2-17 4-10 4-9 7-6 7-5 9-1-3v-9l7-10 4-2v-2l14-7 5-1v-2l21-4 16-1 4-1z" fill="#30153C"/>
<path transform="translate(152,1360)" d="m0 0 8 1 5 2v2l4 2 8 9 9 15 1 4h2l6 9 5 8 7 10 7 11 8 10 1 3h2l4 6 12 13-4 1-4-2v-3l-2 2-6-4-9-11-16-23-11-17-15-23-6-8-8-8-8-6z" fill="#597391"/>
<path transform="translate(433,1207)" d="m0 0 9 1 5 8-1 5-10 5-7 6-13 2-7 1-13 1-4 3-9 3h-6l4-3 12-6 5-4h2l5-5h2l2-4 3-1 1-3z" fill="#426C73"/>
<path transform="translate(734,871)" d="m0 0h7l21 3 4 1 3 1 4 2h6l4 3 9 3 9 6 1 2 4 2v2l5 5 10 9v3l-7-7-5-2-5-5v-2h-2l-1 2v-3l-1 3 5 4 1 3-5-2-10-7-16-8-16-5-10-2-13-1-33-1-1 2h-11l3-3 6-3 12-1v2h27l10 1h6l1-1-12-2-14-2z" fill="#6C98A1"/>
<path transform="translate(775,383)" d="m0 0h52l61 3 38 3 34 3 9 1v3h-15l-15-2-16-1-12-2-20-1-6 1-3-1-9-1-2-1-1 2h-6v-2l-10 1-21-1h-27l-13-1-33 1-10 2-2-1-3 1-26 2-7 1v-2l20-3h5v-2l22-2z" fill="#67A297"/>
<path transform="translate(342,1238)" d="m0 0 18 6-2 4-6 4-24 8-16 4-6 2h-2l-2 5-6 7-8 5v-3l6-5 5-7 6-12v2h2l2-6 4-4 11-4 7-3 9-1z" fill="#426B73"/>
<path transform="translate(1164,1158)" d="m0 0 2 4 2 3h-3l-1 25-4 15-4 4-1-5 1-2h2v-4l-8 2-11 4-12 1-2-1v2l-16-2-16-5-9-7-7-9-5-3v3h-3l-2 2-1-6v-12h1l1 8 3-1 6 1 5 4v2h2l4 4 6 4 8 4 13 4 9 1h4l6 1v-2l13-3 12-4 2-1 1-4 1-22z" fill="#5C8A91"/>
<path transform="translate(1303,1212)" d="m0 0 1 3v4l4 1 6 8 6 9 10 13 6 4 2 2h5l5 3 4 2 8 1h16l10-4h3l-1 7-3 3h-9l-5 1h-19l-8-3-7-2-1-3-5-2-4-3-5-3-7-9-9-11v-2l-5-2-4-2v-6z" fill="#5D8B91"/>
<path transform="translate(1009,393)" d="m0 0 21 3 9 4 7 3v2h3l5 6 4 4 5 12 3 14 5 46 3 15-1 4-4-17-4-39-2-17h-2v2l-5-2-8-16-6-2-5-4v-3l-11-3-23-5-28-3-3-2 17-1 7 1 4 1h9z" fill="#65A096"/>
<path transform="translate(1164,1126)" d="m0 0 8 4 15 10 5 4-1 5-7 14-5 4h-7l-5-3-2-2-1-4z" fill="#140B19"/>
<path transform="translate(1293,1233)" d="m0 0h1l1 15h1l2 6 6 3 7 6 1 5 5 2 13 8 13 4 12 1v2l5 1v3l-12 3h-10l-13-3-11-6-9-8-7-10-4-10-1-4z" fill="#54718C"/>
<path transform="translate(842,376)" d="m0 0h35l54 4 48 6 12 2v1h-15l-10 1h-10l-8-1-21-2-8-1-70-5-1-2-6-1z" fill="#4F8380"/>
<path transform="translate(1196,1164)" d="m0 0 3 1v2l5 2 5 8 9 15 4 2 5 8 9 3 4 3 16 4h9l4 1 1-2 10 1 1 5-5 5h-2v-4l-11 1h-11l-15-4-9-6-10-7-9-11v-4h-3l-6-9-2-4-5 1-2-1 1-9h3z" fill="#5C8A91"/>
<path transform="translate(717,929)" d="m0 0h10l18 2 8 2 2 2 4 2 1 2 5 2 9 6 8 3 3 2 2 8-3 8-4-5-5-6 1-2h-2l-3-4v-2h-6l-5-3-4-2-1 3h-2v2l-4-1-5-2v-2l-5-1v2l-6-1-13-4-1-8h3l-5-2z" fill="#1C1124"/>
<path transform="translate(215,1267)" d="m0 0h13l13 4 19 9 8 3-1 5-1 1 2 2-5 1h-15l-12-4-11-6-6-3 2-1-6-8z" fill="#5B8493"/>
<path transform="translate(1366,1340)" d="m0 0h2l4 7v3h2l5 6 11 3h8v-2l17-2-1-4 5 2v2l5 1 1 4-4 6-8 6-12 5h-9v-3l-5-2-2-5-10-5-1-5-5-5-1-6z" fill="#4A7181"/>
<path transform="translate(766,721)" d="m0 0h2l1 12-3 25-1 12-1 24 3 7-1 6-3 3-7-1-4-7 1-12 2-9 2-13 2-8 2-9-2-1-1 2 1-12 1-8 2-6h2v-4z" fill="#659390"/>
<path transform="translate(1053,1310)" d="m0 0 3 3v7l3 1-1 6h-2v4h-2l-2 5-2 4-5 1v2l-10 5h-15l-9-2v-2l-3-1 1-2 6-1v-2l18-3-1-5 3-1 1-3 10-4 3-5v-2l3-3z" fill="#30153C"/>
<path transform="translate(322,1207)" d="m0 0 8 8 11 6 4 2v2l4 2 5 2 11 2 3 1v2h6l3 3v3l3 1-17 2-19-4-10-6-6-5-7-9-3 2-1-2 1-7v-3z" fill="#537E88"/>
<path transform="translate(586,923)" d="m0 0h1l2 17 11-2 9 3v-9h1l2 23v11l-2 3-7 1h-7l-5 1-2-12-3-28z" fill="#5B8493"/>
<path transform="translate(1429,1353)" d="m0 0h5l5 1 5 2h8l2 4-10 6-7 6-5 1-5 4-7 8-9 14-8 12-1-2 2-7 2-5v-5l2-1 3-9 3-1 2-6 6-9 2-7-1-5h5z" fill="#55718D"/>
<path transform="translate(1204,1154)" d="m0 0h2l2 10h2l6 16 7 11 6 6 5 1 10 5 13 3h7l10-2 4 1h4v7l-2 3v-3h-10l-5 1h-9l-16-4-8-5-6-2-5-7-5-4-10-18-5-5-2-1v-2l-4 1-2 1 1-10 2-2h7z" fill="#59918D"/>
<path transform="translate(1219,1130)" d="m0 0h1l1 26 4 16 4 9 6 7 9 6 8 3 12 1h13l2-1h6l-1 9-2 3v-4l-6 1-2-1-10 2h-7l-13-3-10-5-9-16-3-3-3-6-2-12v-24z" fill="#679A94"/>
<path transform="translate(452,629)" d="m0 0 2 1 1 10-3 5-9 2-1 3-6 5-4 8-6 11-7 13h-2l-2 11-2 4-1 8h-1l-1-19 5-16 9-17 10-13 8-8z" fill="#3F6471"/>
<path transform="translate(315,1121)" d="m0 0 4 5 3 9 2 9 3 14 3 11 5 14 6 7 2 4 6 5 3 3 6 3 13 6 18 6 6 3v2h2l-1 4-1-3-11-1-10-5-17-5-4-2-6-1-3-3-7-3-6-10-2-7 2-2-4-4-1-6h2l-2-8-3-9-1-8-4-14-3-7z" fill="#649390"/>
<path transform="translate(103,1247)" d="m0 0 2 1-2 4 2 4 9 5-2 7-6 4h-3v6l-2 3h-3v2h-2v7l-1 7h2l1 2v6h-7l-4-13v-14l3-12 5-9z" fill="#5C938D"/>
<path transform="translate(1294,1238)" d="m0 0 2 1 3 4 3 9 4-1 4 6v2l2 3 4-2 11 8 11 6 11 1 8 1 15-1v2l5-1 2 3-13 8-5 1-2-2-4-1v-2h-12l-13-4-13-8-5-3-3-6-7-5-6-4-2-4z" fill="#587B8F"/>
<path transform="translate(941,598)" d="m0 0h12l13 3 9 2 8 5-2 1-13-4-19-1h-12l-9 2-9 1-10 3-10 5-10 7h-2v2h-2l-1 3-4 4-10 14-6 12-3 3h-2v5l-4 1-3-5 2-4h2l2-5 3-5h2l2-5 6-8 9-10 11-10 9-4 5-3 13-4 5 1v-2h6v-2z" fill="#6B9EA0"/>
<path transform="translate(323,1200)" d="m0 0 4 2v3l5 2 7 3 12 6 12 4 12 3 6 3-1 2-1 1 5 2 2 7-5 2h-4l-3-5-6-1v-2l-14-2-6-2-4-5-9-4-9-6-3-7z" fill="#58848B"/>
<path transform="translate(451,1065)" d="m0 0 3 3v25l1 14-1 11 1 18v12l1 11 2 21 2 6v2h2l3 7 2 5-4-2-1-3-5-5-3-7-4-18v-23l-1-11v-25l-1-33-1-2-3 2 2-4z" fill="#59918D"/>
<path transform="translate(1195,1194)" d="m0 0h3l2 1 3 5 1 4 6 2 5 6 1 2 7 3 3 3 10 4 10 1 1 1 10-1 10-2 5-4h2l1 5-7 7-10 7h-5l-1-6h-17l-12-5-8-5v-2h-2l-5-6-5-5-7-10z" fill="#587B8F"/>
<path transform="translate(317,1181)" d="m0 0h2l6 12 7 7 13 6 5 3 5 1 11 4 13 4 5 3 11 2v5l-2 3 2 1-7 5h-3l-1-6-7-2 1-2 2-1-12-4-12-3-16-7-4-2-9-5-1-3-4-3-3-12z" fill="#5C8A91"/>
<path transform="translate(1411,1270)" d="m0 0 1 3-1 3h-2l1 4-3 17v17l2 9 3 15-6 1-1 3-6-10-4-13v-13l3-13 10-19z" fill="#4A737B"/>
<path transform="translate(916,594)" d="m0 0h16l-1 2-22 4-16 7-14 9-5 4-6 7-4 4h-2l-1 5-7 14-4 11 5 2-1 4h-6l-1 2-3-1-1 21v12l3 15 6 15-1 2-5-10-4-13-1-5v-27l1-10-1-7 3-1 1-4 7-14 6-10h2l2-4 5-7h2l1-3 17-13 15-7z" fill="#538186"/>
<path transform="translate(777,1103)" d="m0 0 45 1 3 2v2l-6 1v3l-11 7-9 1-11-1-7-6-5-2-6-4-1-2z" fill="#3B606E"/>
<path transform="translate(695,881)" d="m0 0h7l1 30 3 6 5 4v2l3 1-4 1-6-3-5-5-3-9-5-16-8 2-12 6-10 8-4 1 2-6h2l2-4 6-6h2v-2h3v-2l6-3 8-3z" fill="#190C1C"/>
<path transform="translate(450,1177)" d="m0 0h1l2 10 2 6 4 7 3 2v2l4 2 10 6 14 7-4 2 12 2h9l7-1-3 5-10 5-4-1 3-3-7 1-9-1-10-3-6-3v-2l-3-1-2-6-6-5-2-5h-2l-3-9-1-11z" fill="#58858B"/>
<path transform="translate(1013,896)" d="m0 0 2 1v8l1 1v8l4-1 3-10 2-7 1 4-5 25-3 13-5-1-5-3-8-1-1-1 1-17 1-5 3 3 7-2-2-9 3-5z" fill="#5B8492"/>
<path transform="translate(1421,1365)" d="m0 0 2 1-4 6-4 7-3 3-4 10-7 1-2-2-12-3 2-1-9-3-2-1v-2h-2v-2l-4-2-5-6 4 1v-2l-2-1 4 1 9 5 4 1h16l14-7z" fill="#4F7888"/>
<path transform="translate(583,730)" d="m0 0 4 4 5 9 5 4 3 3v2h2l4 5 6 4 4 2v2h3l1 2 5 1 1 2 8 3v2l12 2 7 1h25l16-3 5-3 14-5 4-4 5-2 7-5v4l-7 6-10 6-15 7-12 3h-36l-17-5-16-8-13-10v-2l-4-2-11-13-5-9z" fill="#30163C"/>
<path transform="translate(825,1107)" d="m0 0 4 2-1 2 6-1 1 5-5 3-7 2-2 2v5l-8 5-10 1-13-2v-1l18-1 8-2 1-2-3-1 5-4 3-2-6 1v2l-7 4v2h-2v2h-13l-5-3-2-4-4-2v-2l-3-1-2-2h-3l-5-3v-2l5-1 2 2 5 2 6 5 12 1 10-2 7-5h2v-3z" fill="#426B73"/>
<path transform="translate(691,1419)" d="m0 0h4l-1 3-3 1-1 2h-5l-1 4-4 3-5 1 4 2-11 1h-18l-23-1v-1l11-1-1-2 2-3h-5l4-2 3-1h12l5-2h11l2-1h18z" fill="#556F8D"/>
<path transform="translate(1423,1336)" d="m0 0 7 1 6 4v2h2v2l5 2 11 4v5l-5 1-14-2-5-1-8 2-3-1-3-3-5-3-5-6-1-5 3-1 11 3 5 2-2-5z" fill="#4F7788"/>
<path transform="translate(448,1189)" d="m0 0 2 1 3 11v2h2l2 5 4 2 4 5 1 4 4 2v2l4 1 14 4h9l5-1-5 5-6 2h-11l4-2-21-6-9-7-6-5-2-4v-3h-2l-1-3-2-2 2-5h2l1-7z" fill="#507889"/>
<path transform="translate(208,1239)" d="m0 0h13l10 3 4 4v2l9 3 11 7v2l5 2 5 3-3 2-14-7-13-4-4-3-4-1h-15l-6 3-4-11h2l1-3h3z" fill="#649290"/>
<path transform="translate(1081,527)" d="m0 0 4 1v2h2l8 11 5 5 1 3h2l7 10 2 4 1 6v17l-2 14h-2l-2-12-2-13-4-12v-3h-2l-7-11-3-5-3-6-1-3-4-4z" fill="#74B6AB"/>
<path transform="translate(383,1196)" d="m0 0 7 2 8 5v2l4 1 4 2 1 6-3 9-4 5-4 3h-3l2-5 2-4h-2v-2l-5-1-1-2 5-1-5-1-6-3v-2l-7-4-4-5h4l-1-2 2-2h4l5 4z" fill="#6B9FA0"/>
<path transform="translate(956,1424)" d="m0 0h18l17 3 2 2h-5v2l-6 2-2 3h-51l-11-2-3-1 1-3 6 3 25 1v-2l-5-1 3-5z" fill="#55718D"/>
<path transform="translate(759,750)" d="m0 0 3 1-2 9-4 19-1 8-2 12 1 5 2 2v3l3-1 2 1v5h-2l-1 3-7 2-5-2-2-7 1-15 8-29 4-14h2z" fill="#5D8B92"/>
<path transform="translate(720,766)" d="m0 0 4 1-3 5-10 6-14 7-17 3h-20l-4 1-7-1-6-4-5-1-6-3v-2l9 1 8 2h36l14-4 19-9z" fill="#6EA3A5"/>
<path transform="translate(533,1192)" d="m0 0h1v19l-6-1-8 4-14-1-2-2 5-1-6-3-1-2h8l-2-5-4-1v-3l14 1 6-2 7-1z" fill="#6C9FA1"/>
<path transform="translate(145,1236)" d="m0 0 9 1 13 7 13 10 14 11 1 5h-6l-5-6v-2l-4-2-9-2-5-2-6-2-8-7v-2l-4-2-4-5z" fill="#466F75"/>
<path transform="translate(1013,543)" d="m0 0 8 1 11 7 5 5 2 3 2 8v2h2l1 4-1 15-7 10-8 7-9 2h-2v-3l10-5 6-7 4-10v-11l-6-12-9-8-8-5z" fill="#71AFA9"/>
<path transform="translate(766,834)" d="m0 0h60l8 1v3h-2v2l-4-1-1 2-2 1-21 1-4-2h-13l-16-2-5-3z" fill="#60729D"/>
<path transform="translate(1305,1207)" d="m0 0 1 2 10 2 5 10 5 15 7 10 5 4 3 5v2l-5-1v-2l-5-2-7-8-6-9-10-14-4-2-1-6v-3z" fill="#58918C"/>
<path transform="translate(1105,1166)" d="m0 0 8 6 2 5 12 3 13 1 9-2 7-3h6l1-3v10l-4 2-7 1-8 4-13 1v-2h-7v-2l-3-1-4-4-8-7-4-7z" fill="#669A94"/>
<path transform="translate(464,1160)" d="m0 0 2 4 4 16 7 11 7 6 5 3 5 2 3 2 6 2 7 4v1l-7 1-21-7-13-9-2-8-5-10v-11z" fill="#669A94"/>
<path transform="translate(684,878)" d="m0 0 4 2-1 1 4 2-10 3-4 3h-3v2h-3v2l-8 7-2 3h-2l-2 5-5 11-3 12-1 14h-1l-1-11-3-3 2-14 7-14 12-13 6-5 5-3 7-3z" fill="#5D8B92"/>
<path transform="translate(908,520)" d="m0 0h29l5 1-2 1v2h-2v2h-6l-3-1-9 1h-13l-11 4-6 3h-2v2l-3 3h-2l-1 6-2 9 1 6-2 1-2-11v-8l3-7 5-6 8-5 7-2z" fill="#30163C"/>
<path transform="translate(130,1235)" d="m0 0h5l1 5 2 4h2l3 5 6 7 11 7 9 4 16-1 3 5-12 3-12-2-13-7-5-3v-2h-2v-2l-3-1-9-11-5-9z" fill="#4F7D80"/>
<path transform="translate(683,907)" d="m0 0 9 3 2 5 3 2v2h2v2h2v2l6 2 7 3-2 2-4-1v-2l-13-1-1 2-6-3 1-5-9 2-12 2v-3l7-2h-7v-3l5-2h-3l1-4 7-2z" fill="#1C1124"/>
<path transform="translate(956,676)" d="m0 0h1l1 16-7 10-5 4-12 5-4 1h-14l-2-1v-2l-9-3-6-4-1-5h-2l-2-3-1-6h3l5 9 8 6 8 3h15l9-4 7-6 5-10h2z" fill="#F7C97A"/>
<path transform="translate(1045,405)" d="m0 0h4l5 6 4 4 5 12 3 14 5 46 3 15-1 4-4-17-4-39-2-17h-2v2l-5-2-8-16-6-2-5-4v-2h8z" fill="#659A9A"/>
<path transform="translate(118,1338)" d="m0 0 6 2v-2l5 1 4 1 21 3 13 4 8 4 5 5-6 1-15-7-5-2h-30l-2 2-7-7 1-4z" fill="#5B8493"/>
<path transform="translate(1431,1332)" d="m0 0 7 6 4 2v2l5 1 7 2 15 2 6-1 3 2-1 3-12 7-10 3-3-1h2l-1-7 1-2-7-1-9-5v-2h-2v-2l-3-1v-3h-2z" fill="#58858B"/>
<path transform="translate(685,591)" d="m0 0h7l12 2 7 5 6 3 11 8v2l4 2 7 12 6 7 2 5h-3l-7-10-6-7-12-9-1-3-19-9-15-4-8-1 4-2z" fill="#6788A0"/>
<path transform="translate(933,591)" d="m0 0 25 3 15 5 14 8 6 5-1 2-10-6-7-4-9-2-4-1v-2l-7-1h-28l-13 2-12 5-8 4h-2v2l-6 1v2l-4-1 13-8 14-6 22-4-8-1v-1l9-1z" fill="#5D8C92"/>
<path transform="translate(259,1145)" d="m0 0 5 5 12 17 13 18 8 11-1 2h-1l7 16 1 5-2 1-12-22-17-28-9-16-4-7z" fill="#566C8B"/>
<path transform="translate(338,1227)" d="m0 0 16 4 6 1 14 2 3 3v3l3 1-17 2-19-4-6-3-2-7h2z" fill="#54718C"/>
<path transform="translate(675,512)" d="m0 0h13l3 2v3h4l1-2v2l4 1-2 3h-35l-10 1h-13l2-4 14-3 11-2z" fill="#6AA49F"/>
<path transform="translate(458,1490)" d="m0 0h5v1l25 1 14 2-4 2-10 2h-48l1-6 6-1 3 2v-2z" fill="#5B6997"/>
<path transform="translate(531,1130)" d="m0 0 2 4v48h-4l-3-5-1-6v-19l2-13z" fill="#77BCAF"/>
<path transform="translate(534,1098)" d="m0 0h1l1 119v106h-1l-1-10-1-80z" fill="#527188"/>
<path transform="translate(1231,1197)" d="m0 0 16 7 10 2h7l10-2 4 1h4v7l-2 3v-3h-10l-5 1h-9l-16-4-10-6-1-5z" fill="#5F9294"/>
<path transform="translate(586,923)" d="m0 0h1l2 17 11-2 9 3v-9h1v21l-1 1h-13l-6-1-2-4-2-18z" fill="#597C90"/>
<path transform="translate(660,593)" d="m0 0h16l17 3 13 5 13 7v2l-5-2-13-5-16-3h-20-4l-17-1-2-3 9-2z" fill="#5A6F93"/>
<path transform="translate(1416,1263)" d="m0 0 1 2-3 9-3 12-2 20 2 9 3 7v4h2l4 5 4 8v3l-5-1-7-3-3-10-3-14v-18l3-18v-2h2l1-8z" fill="#4F7D80"/>
<path transform="translate(760,374)" d="m0 0h69l6 1v1l-74 1-61 3-24 2h-7l4-2 33-3 31-2z" fill="#4A687F"/>
<path transform="translate(578,838)" d="m0 0 4 1v3h2l1 6h2l6 15 2 3 3 9 3 10v7h2l3 15v9l-2 1-2-4-2-14-2-5-2-9-2-3h2l-5-11-2-6-7-14v-3h-2l-1-7-2-1z" fill="#4E6B7C"/>
<path transform="translate(229,1275)" d="m0 0 7 1 8 3 12 5 1 5-2 3h-7l-12-4-11-6-3-3 3-3z" fill="#587C8F"/>
<path transform="translate(1064,1190)" d="m0 0h1l1 28 2 3 1 18 2 10 4 1-1 3-3 1-1 1v2h-2l1 6-3 1-1 59h-1z" fill="#58738F"/>
<path transform="translate(1342,1251)" d="m0 0 15 5h11l2 1 9-2 6-1h8l-2 6-2 2v-4l-13 5h-16l-10-2-6-3-5-4 1-2z" fill="#609295"/>
<path transform="translate(435,1159)" d="m0 0 4 4-1 18 2 5 3 12-1 4 2 2v3h2l3 7 11 9 5 3 21 6v1h-13l-17-8-8-7v-2h-2l-5-8-4-10-1-8v-26h-2-3z" fill="#4B7182"/>
<path transform="translate(848,983)" d="m0 0h1l1 14-1 1-40 1h-102l-16-3 4-1 9 1h143z" fill="#576E8F"/>
<path transform="translate(645,954)" d="m0 0h3l1 3 2-2 6 14 8 10 10 8 8 4-3 2-6 1-2-1v-2l-5-1v-2l-4-2-10-12-3-3-4-10-1-4z" fill="#5B8293"/>
<path transform="translate(464,1214)" d="m0 0 5 2 7 3 13 3 15 1 10-1-3 5-10 5-4-1 3-3-7 1-9-1-10-3-6-3v-2l-3-1z" fill="#597C90"/>
<path transform="translate(976,388)" d="m0 0 22 1 25 5 3 2-9-1-8-2v3l-9 1-13-2h-9l-9-1v-2h-3v-2z" fill="#578D8B"/>
<path transform="translate(707,875)" d="m0 0h5v2h27l10 1h8l8 3 8 4-3 1-17-3-4-1-13-1-33-1-1 2h-11l3-3 6-3z" fill="#698FA0"/>
<path transform="translate(434,1146)" d="m0 0h2v13l-6 7-2 1-9-1-4-4v-2z" fill="#160E1C"/>
<path transform="translate(463,1192)" d="m0 0 5 2 11 8 9 4 18 6 9 2-3 2-7 1-16-4-9-4-6-4-4-2v-2l-4-2-3-5z" fill="#609294"/>
<path transform="translate(404,1160)" d="m0 0h2l6 17 2 9v14l-3-1-4-6-2-10-2-5-1-15z" fill="#74B8AC"/>
<path transform="translate(860,713)" d="m0 0 1 2 3 1 7 10 5 5 1 3 6 2 9 5 12 6v2l2 1h-7l-13-6-9-6-10-9-8-11-1-4z" fill="#F1C67C"/>
<path transform="translate(1060,815)" d="m0 0 3 1-12 12-1 2h-2l-2 4-6 7h-2v3h-2l-1 4-5 9-4 1 3-9h2l1-7 6-8 4-4 2-4 8-7 4-3z" fill="#5B8493"/>
<path transform="translate(861,633)" d="m0 0v3l-7 14-4 11 5 2-1 4h-6l-1 2-3-1-1 21v12l3 15 6 15-1 2-5-10-4-13-1-5v-27l1-10-1-7 3-1 1-4 2 2 4-6 4-11z" fill="#587C8E"/>
<path transform="translate(496,1057)" d="m0 0 1 4-5 5-3 5-7 9-3 8h-2l-1 8-6 12-4 20-2-1 3-22v-9l5-4 1-2h2l3-9 7-9 3-7 2-2-1-3z" fill="#679A95"/>
<path transform="translate(1425,1321)" d="m0 0 3 3 4 5 3 2v2l4 1v2l10 3 13 3 16 1 4 3-4 3-3-2-7 1-19-3-7-3v-2l-6-2-4-5-5-3z" fill="#5D8B92"/>
<path transform="translate(345,1223)" d="m0 0 21 3 10 2 8 3 2 7-5 2h-4l-3-5-6-1v-2l-14-2-6-2-3-3z" fill="#587C8F"/>
<path transform="translate(941,598)" d="m0 0h12l13 3 9 2 8 5-2 1-13-4-19-1h-12l-9 2h-9l-1-3 5 1v-2h6v-2z" fill="#6C9FA1"/>
<path transform="translate(442,1148)" d="m0 0 1 4-1 6 1 10 2 13 2 8-1 9-4-1-3-11-2-7 1-16-2-2 1-11h1l1 8 2-9z" fill="#4E7D7F"/>
<path transform="translate(452,629)" d="m0 0 2 1 1 10-3 5-9 2-1 3-6 5-4 8-6 11-7 13h-2l2-5 5-11 6-11 7-11v-2l4-4 6-3 2-6z" fill="#446C75"/>
<path transform="translate(810,381)" d="m0 0 27 1 25 1 8 1v2l-47-2h-48l-30 2-10 1-7-1v-1l22-2 12-1z" fill="#5D9A8E"/>
<path transform="translate(453,1216)" d="m0 0 5 1 8 4h4v2l4 1 14 4h9l5-1-5 5-6 2h-11l4-2-21-6-9-7z" fill="#54718C"/>
<path transform="translate(584,529)" d="m0 0h6l2 4-4 2v2l-4 1-4 4-3 2h-3v2l-4 1-3-3 1-5 5-5 6-4z" fill="#679A95"/>
<path transform="translate(667,1340)" d="m0 0h7l7 2 2 2 8 2v2l7 2 3 3v2h2l5 9 1 4h-2l-6-8-3-2v-2l-4-2-13-6-17-4-1-3z" fill="#30163C"/>
<path transform="translate(998,930)" d="m0 0 2 2 11 2 4 3 3 1-1 9-5 2-4-4-7-2-3-2z" fill="#698DA2"/>
<path transform="translate(540,1335)" d="m0 0 4 2 3 3v2l4 1 4 3 8 2v2h13l1 2-7 3h-11l-8-3-6-6v-2l-3-1-2-3z" fill="#6BA5A1"/>
<path transform="translate(571,411)" d="m0 0 2 1-5 4-2 3h-2l-2 5-5 7-4 8h-2l1-5h-3l-4 4h-1v-9l1-3h2l1-2 1 2 5-3h2l1-3h2l2-4z" fill="#57838A"/>
<path transform="translate(1161,1183)" d="m0 0h2l-2 7-8 3-14 4-10-2-2-2 2-2 15-2 11-5z" fill="#609294"/>
<path transform="translate(391,1110)" d="m0 0 4 4 15 35-2 1v-2h-2v6l-1-3h-2l-1-6h-2l-5-19-3-8z" fill="#516D7E"/>
<path transform="translate(528,1209)" d="m0 0 5 1 1 1v19l-3 1-1 2h-2l-1 2-3-7v-10l3-3v-2l-2-2z" fill="#609295"/>
<path transform="translate(505,1487)" d="m0 0 7 1-1 2 2 2-7 2-27-1-17-1 1-2 22-1 4-1z" fill="#55708D"/>
<path transform="translate(1423,1336)" d="m0 0 7 1 6 4v2h2v2l5 2 11 4-2 4-5-1-8-2v-2l-9-3-6-4-2-6z" fill="#537E87"/>
<path transform="translate(610,942)" d="m0 0h1l1 17-3 2-18 1-2-3v-9l1 3h19z" fill="#5B8492"/>
<path transform="translate(969,1378)" d="m0 0h11l7 3-2 3h-27l-16 1-5-1 4-2 11-1 3-2h11z" fill="#609295"/>
<path transform="translate(323,1220)" d="m0 0 9 2 16 5 6 2 11 2 3 1v2l-12-1-16-5-2-1-1 3 1 5-5-3-5-4-5-6z" fill="#4F7788"/>
<path transform="translate(900,386)" d="m0 0 23 1 4-1 26 2 8 1 5 1v2l3 1-6 1-3-1-45-4-16-1z" fill="#5A948D"/>
<path transform="translate(1186,1178)" d="m0 0h1v14l7 2 7 11 5 7 3 2v2l4 2v2h2v2l-5-2-5-4-8-11-9-6-2 4v-17h-2l1-6z" fill="#507589"/>
<path transform="translate(813,828)" d="m0 0 15 1 6 1 10-2 1 3-7 6-4 1v-2l-18-3v-2h-4z" fill="#667CA4"/>
<path transform="translate(642,931)" d="m0 0h2l1 2 2-1 1 13 2 6v8l-2-2v-3l-2 1 1 4v2h-2l-2-3-2-17z" fill="#6A9B9F"/>
<path transform="translate(586,923)" d="m0 0h1l2 17 11-2 9 3v5l-11 1h-7l-2-2-2-6z" fill="#517989"/>
<path transform="translate(1110,649)" d="m0 0h3v28l-1 2-4-1-3-11 2-5z" fill="#76BBAE"/>
<path transform="translate(205,1241)" d="m0 0h3v2h6v2l10 3 5 2v1l-17 1-6 3-4-11h2z" fill="#609295"/>
<path transform="translate(990,715)" d="m0 0 1 3-8 11-7 7-14 9-6 1 1-2h3l1-3h2l5-5 10-9 10-11z" fill="#F6C97B"/>
<path transform="translate(900,379)" d="m0 0h17l31 3 31 4v1h-9l-23-2h-11l-6-2h-11l-15-2z" fill="#46697A"/>
<path transform="translate(684,878)" d="m0 0 4 2-1 1 4 2-10 3-4 3-2-1h-3l-8 7-9 11-2-1 3-7 8-8 6-5 5-3 7-3z" fill="#5E8894"/>
<path transform="translate(1151,632)" d="m0 0 2 4v6l-1 2h2v6l-2 6h-2l-1 2h-3l-1 2-3-2 3-10z" fill="#67979C"/>
<path transform="translate(238,1249)" d="m0 0 6 2 11 7v2l5 2 5 3-3 2-14-7-13-4-5-5 5 1-1-2z" fill="#609294"/>
<path transform="translate(1040,1463)" d="m0 0 6 4v2l4 1v2h3v2l5 2 16 8 16 6 19 4v1h-10l-18-5-16-7-14-8-12-9z" fill="#627E9C"/>
<path transform="translate(1065,1261)" d="m0 0 3 2 3 10h3 2l-1 6 1 1-2 6-3 2-2-4-4-4z" fill="#5A8492"/>
<path transform="translate(1325,1437)" d="m0 0 5 1 3 2-8 5-15 5h-8v-2l6-1 2-4h8l2-4z" fill="#58858B"/>
<path transform="translate(916,594)" d="m0 0h16l-1 2-22 4-16 7h-7l3-3 13-6z" fill="#59868C"/>
<path transform="translate(849,764)" d="m0 0h3l2 6 9 3 10 2 6 3v2l-13-1-6-1-5 3-2-7v-2l-2-2v-3h-2z" fill="#6D9AA1"/>
<path transform="translate(647,747)" d="m0 0 14 2 2-2 10 1 6 3 6 1h9v1l-6 1h-21l-6-2-9-2-5-2z" fill="#DFB480"/>
<path transform="translate(793,386)" d="m0 0 14 1h26l4 3-1 1h-16v-2l-2-1 1 3h-11l-13-2h-5z" fill="#6C9FA1"/>
<path transform="translate(265,1159)" d="m0 0h2l4 8 1 6 1 5-1 14-4-1-2-4-8-3v-1l11 1-1-3h2l-2-4-3-13z" fill="#6CACA2"/>
<path transform="translate(468,802)" d="m0 0 12 4 10 1 5 1 1 1v5l-9-1-16-5-3-3z" fill="#507484"/>
<path transform="translate(1037,571)" d="m0 0h1v11l-4 10-7 8-10 5h-5l4-2 3-3 5-3 4-7 2-1 2-6h2l2-5z" fill="#331F42"/>
<path transform="translate(448,1189)" d="m0 0 2 1 3 11v2h2l2 5 4 2 4 5 1 3-5-2-12-12-3-5v-9z" fill="#537E87"/>
<path transform="translate(605,649)" d="m0 0 1 4-2 7v27l2 7 4 16 2 4-1 3-6-12-3-12-1-7v-21z" fill="#F3BA7B"/>
<path transform="translate(364,1212)" d="m0 0h10l15 5 6 3v2h2l-1 4-1-3-11-1-10-5-10-3z" fill="#609294"/>
<path transform="translate(1072,1180)" d="m0 0 5 2 4 4v6l-3 4-5-2-2-1-1-10h2z" fill="#508581"/>
<path transform="translate(731,877)" d="m0 0h8l10 1h8l8 3 8 4-3 1-17-3v-2l-11-1-28-1v-1z" fill="#608A95"/>
<path transform="translate(435,1159)" d="m0 0 4 4-1 18 2 5 3 12-2 5-2 1-2-6-1-8v-26h-2-3z" fill="#487179"/>
<path transform="translate(675,886)" d="m0 0v3l-1 2h-3v2l-8 7-2 3h-2l-2 5-5 11h-2l-1 2-1-2 5-12h2l2-5 11-12 4-3z" fill="#699A9F"/>
<path transform="translate(216,1117)" d="m0 0 6 5v1h-12l-4 4-8 1-2-1 2-4 11-5 7 1z" fill="#679A95"/>
<path transform="translate(1096,779)" d="m0 0 8 1v4l-4 1-1-2-3 3h-2v2l-14 1v-3l13-6z" fill="#76BBAE"/>
<path transform="translate(259,1145)" d="m0 0 5 5 12 17 6 9-4-1h-3l-16-28z" fill="#5A7887"/>
<path transform="translate(842,376)" d="m0 0h35l17 1 3 2h-49l-6-1z" fill="#456778"/>
<path transform="translate(513,1491)" d="m0 0 5 1-1 5-1 1h-28l4-2z" fill="#30163C"/>
<path transform="translate(118,1338)" d="m0 0 6 2v-2l5 1 4 1 8 1-1 2-18 2h-5l-2-2 1-4z" fill="#58868B"/>
<path transform="translate(757,878)" d="m0 0 9 1 10 3 7 3 1 4 5 2 2 2-6-1-6-3-2 1-11-4 4-1-9-5z" fill="#6B9DA0"/>
<path transform="translate(655,595)" d="m0 0h23l5 1v1l-15 2h-6l-5 1-13-1-1-2z" fill="#351F42"/>
<path transform="translate(723,551)" d="m0 0 1 3-3 10h-2l-2 5-8 6-7 2 3-5 6-3 7-10 1-4z" fill="#331F42"/>
<path transform="translate(907,1369)" d="m0 0h2l3 6v2l15 5v2l-9 1-9-4-3-5z" fill="#5B8493"/>
<path transform="translate(915,1430)" d="m0 0 7 3 51 1 7 1v1h-51l-11-2-3-1z" fill="#5A6795"/>
<path transform="translate(1009,393)" d="m0 0 18 3 1 4-4 1-12-1-9-2 3-2h3z" fill="#6B9EA0"/>
<path transform="translate(856,1200)" d="m0 0m-2 1 4 2-4 3-19 7-5-1 2-2 6-1v-2h3v-2l7-3z" fill="#4F7684"/>
<path transform="translate(535,1131)" d="m0 0h1l1 41 3-2 1 4 1 5-3 5h-2l-1 2-1-6z" fill="#301D3E"/>
<path transform="translate(150,1277)" d="m0 0 12 3 9 3 11 1h6l4-3 4 2-3 2-6 2h-13l-10-3-12-4z" fill="#57858A"/>
<path transform="translate(981,394)" d="m0 0h9l10 2 12 3 1 2-12-1-26-3-3-2z" fill="#69A29B"/>
<path transform="translate(888,1125)" d="m0 0h2l-1 8-4 15-3 3-1-6 1-8h3v-8z" fill="#4F7888"/>
<path transform="translate(687,595)" d="m0 0 12 3 19 9 1 3-5-2-13-5-17-5z" fill="#515A7D"/>
<path transform="translate(540,473)" d="m0 0h3l3 1v9l-5 1v9l-4 5 1-12z" fill="#578D8B"/>
<path transform="translate(963,598)" d="m0 0 10 1 14 8 6 5-1 2-10-6-7-4-9-2-4-2z" fill="#5F9194"/>
<path transform="translate(583,730)" d="m0 0 4 4 5 9 5 4 3 3v2h2l5 6-1 3-3-2v-2l-4-2-11-13-5-9z" fill="#31183E"/>
<path transform="translate(709,383)" d="m0 0 7 1v1l-7 1-2 2-18 2-9-2v-1l22-3z" fill="#5A8E8F"/>
<path transform="translate(571,715)" d="m0 0 3 1 2 6 2 1 1 5 2 6 4 1 4 7-1 4h-2l-6-9-7-15z" fill="#6CA9A2"/>
<path transform="translate(888,606)" d="m0 0h3l-1 3-11 7-5 4-6 7v-3l3-4-2-1 15-12z" fill="#558288"/>
<path transform="translate(893,1173)" d="m0 0 1 3-12 12-9 7h-4v-4h3v-3l7-1z" fill="#527D86"/>
<path transform="translate(202,1319)" d="m0 0h1l-1 9-5 10-7 9h-2l2-9 3-1h2l1-6h2v-6h2z" fill="#6C9DA0"/>
<path transform="translate(536,1314)" d="m0 0h1l2 10 5 7v2l3 1 3 6v2h-3l-8-10-3-8z" fill="#331F42"/>
<path transform="translate(513,1219)" d="m0 0h5l-1 4-4 2-1-2-8 1-15-1-5-2 4-1h23z" fill="#5B8492"/>
<path transform="translate(1083,1491)" d="m0 0 8 1 10 3 1 2h-19l-2-2z" fill="#30153C"/>
<path transform="translate(689,1105)" d="m0 0h6l-1 5h2v5l-3-1v4l-4-2-2-3v-6z" fill="#4F7D80"/>
<path transform="translate(764,731)" d="m0 0 2 1-1 4v6l-3 8h-3l-1 2 1-12 1-5h2v-3z" fill="#609193"/>
<path transform="translate(838,672)" d="m0 0 4 2-1 27h-1l-2-14-3-11h2z" fill="#5F9093"/>
<path transform="translate(1153,1206)" d="m0 0h2l2 5-7 9-3-1v-7l1-3z" fill="#577B8E"/>
<path transform="translate(595,956)" d="m0 0 16 1v3l-2 1-18 1-1-4z" fill="#5D8B92"/>
<path transform="translate(557,1348)" d="m0 0h6v2h13l1 2-7 3-10-1-3-4z" fill="#70ABA6"/>
<path transform="translate(154,1239)" d="m0 0 8 2 9 6 1 4-9-3-9-6z" fill="#466872"/>
<path transform="translate(680,388)" d="m0 0h7l5 1 7-1v2l-12 2-14 1-5 1-1-3z" fill="#5A958D"/>
<path transform="translate(434,655)" d="m0 0v3l-4 9-11 20h-2l2-5 5-11 6-11z" fill="#426C73"/>
<path transform="translate(745,636)" d="m0 0 3 3 7 14 3 9-1 4-2 4-3-15-6-15z" fill="#3E1B41"/>
<path transform="translate(750,368)" d="m0 0h11l2 1-1 2-36 1-3-1v-1l10-1z" fill="#30153C"/>
<path transform="translate(465,1129)" d="m0 0h1v29l-3 2v-16l-1-3 2-9z" fill="#679A95"/>
<path transform="translate(1454,1352)" d="m0 0 12 2-1 4-10 3-3-1h2l-1-7z" fill="#597E8C"/>
<path transform="translate(391,1110)" d="m0 0 4 4 6 14-1 2-2-1-1 3-3-7-3-10z" fill="#466C7A"/>
<path transform="translate(573,704)" d="m0 0h1l3 13 7 16-1 2-4-4-2-6 1-2-3-1-3-7z" fill="#66929D"/>
<path transform="translate(650,955)" d="m0 0 2 3 7 14 8 9-1 3-9-9-8-16z" fill="#638899"/>
<path transform="translate(669,573)" d="m0 0 6 1v2h10v1l-22 1-9 1-2-2 5-2z" fill="#321E41"/>
<path transform="translate(1106,1232)" d="m0 0h24l-5 4-6 2-9-3z" fill="#4B7182"/>
<path transform="translate(602,892)" d="m0 0h1l3 15v9l-2 1-2-4-1-13z" fill="#506F7E"/>
<path transform="translate(673,1346)" d="m0 0 8 1 7 3-2 1 1 3-6-1-8-3z" fill="#619693"/>
<path transform="translate(533,1212)" d="m0 0h1v18l-3 1-2-10 1-7z" fill="#5D8B92"/>
<path transform="translate(1278,1205)" d="m0 0h4v7l-2 3v-3h-10v-3z" fill="#5E938D"/>
<path transform="translate(793,386)" d="m0 0 14 1h10l-2 4h-7l-13-2h-5z" fill="#6CA3A1"/>
<path transform="translate(1340,1145)" d="m0 0 1 3-8 12-2 4-4 2h-3l9-12z" fill="#557B85"/>
<path transform="translate(704,1174)" d="m0 0 4 2 7 8 14 11-1 2-16-12-8-8z" fill="#1A0F20"/>
<path transform="translate(1e3 399)" d="m0 0 23 5 11 4-3 1-11-2-1-3h-7l-6-2-1 2-6-3z" fill="#6C9FA1"/>
<path transform="translate(1416,1263)" d="m0 0 1 2-3 9-3 12-3-1 1-9h2l1-8z" fill="#4E7B7F"/>
<path transform="translate(881,520)" d="m0 0 2 1-1 4-1 3h-2l-2 5-5 5-1-2 5-10z" fill="#6DAEA3"/>
<path transform="translate(939,392)" d="m0 0 30 1v3h-15l-15-3z" fill="#68A498"/>
<path transform="translate(649,376)" d="m0 0 2 2-10 2-11 2-14 2h-7l2-2 13-2 8-1 5-1z" fill="#30153C"/>
<path transform="translate(1073,1486)" d="m0 0h6l11 4 19 4v1h-10l-18-5-8-3z" fill="#61779E"/>
<path transform="translate(377,1227)" d="m0 0h10l3 2-1 4-1 2 2 1-5 1-1-6-7-2z" fill="#5A8392"/>
<path transform="translate(185,1335)" d="m0 0 5 2 1 4-3 5-4-5-9-3v-1h9z" fill="#609295"/>
<path transform="translate(745,1191)" d="m0 0 7 1 8 4-1 6h-2v-2l-5-2-6-4z" fill="#4B7182"/>
<path transform="translate(1066,1179)" d="m0 0 2 4 2-1 1 11-6 5z" fill="#57848A"/>
<path transform="translate(602,687)" d="m0 0h2l2 7 4 16 2 4-1 3-6-12-3-12z" fill="#DCB280"/>
<path transform="translate(1020,731)" d="m0 0 2 1 1 4-3 1-1 3-3 3-3 6-6 2 6-9 5-8z" fill="#6A9CA2"/>
<path transform="translate(1425,1251)" d="m0 0v3l-5 5-8 11-4 4 2-7 6-8 1-3 6-3z" fill="#406972"/>
<path transform="translate(438,1117)" d="m0 0h1l1 14v12h-2l-1-2v-21z" fill="#426C73"/>
<path transform="translate(666,889)" d="m0 0h2l-2 4-9 10-2 3-2-1 3-7 8-8z" fill="#5B8692"/>
<path transform="translate(862,378)" d="m0 0h42v3l-3 1-4-1-35-2z" fill="#4D757F"/>
<path transform="translate(409,696)" d="m0 0 2 3v14l-2 12h-1v-23z" fill="#5F7892"/>
<path transform="translate(1024,1455)" d="m0 0 5 2 15 12 4 3-1 2-14-10-9-8z" fill="#30163C"/>
<path transform="translate(799,377)" d="m0 0h27l4 2-3 1-17-1-3-1-1 2-7-1z" fill="#508581"/>
<path transform="translate(944,382)" d="m0 0 20 2 15 2v1h-9l-23-2-4-2z" fill="#4A687F"/>
<path transform="translate(826,377)" d="m0 0h18l5 2-2 2-17-1v-2z" fill="#4E807F"/>
<path transform="translate(645,954)" d="m0 0h3l5 12 2 4-4-1-4-4-2-8z" fill="#5C8A92"/>
<path transform="translate(650,919)" d="m0 0 1 3-2 9-1 14h-1l-1-11h-1v-6l3-8z" fill="#63859A"/>
<path transform="translate(1342,1251)" d="m0 0 9 3 1 5-9-2-4-3 1-2z" fill="#639291"/>
<path transform="translate(731,877)" d="m0 0h8l10 1 5 2-4 1-8-1-28-1v-1z" fill="#5B8492"/>
<path transform="translate(722,537)" d="m0 0h2l2 5v13l-2 6h-2l1-7v-9z" fill="#6DA3A3"/>
<path transform="translate(832,935)" d="m0 0 5 2 3 8 1 7h-2l-7-14z" fill="#6C9DA3"/>
<path transform="translate(903,1355)" d="m0 0 2 1-4 4-1 3h-2l-7 14h-1l1-7 6-9z" fill="#638C98"/>
<path transform="translate(731,618)" d="m0 0 7 6 7 8 2 5h-3l-7-10-6-7z" fill="#536987"/>
<path transform="translate(368,1234)" d="m0 0h6l3 3v3l3 1-5 1h-7l1-3 3-2z" fill="#4F7788"/>
<path transform="translate(273,1165)" d="m0 0 5 5 4 6-4-1h-3l-4-7 1-2z" fill="#5B7289"/>
<path transform="translate(679,1104)" d="m0 0h2l1 4 2 1h-2l1 7-2 2h-3z" fill="#4F8380"/>
<path transform="translate(793,970)" d="m0 0 3 3 4 2 1 7h-4l-4-6z" fill="#1C1124"/>
<path transform="translate(1e3 917)" d="m0 0 10 2 5 4 4 1 1-4v5l-1 1-7-1v-2l-5-2-7-2z" fill="#5D8B92"/>
<path transform="translate(695,1355)" d="m0 0 3 1v2l4 2 1 2-1 2-6-1-2-5-2-2z" fill="#659C95"/>
<path transform="translate(1272,1219)" d="m0 0h2l1 5-5 5h-3v-6z" fill="#598191"/>
<path transform="translate(1187,1183)" d="m0 0 1 2h2v2l2 1 4 4h-2v2l-7-2z" fill="#587C8F"/>
<path transform="translate(756,665)" d="m0 0h1l1 13 1 4-2 11h-2z" fill="#33153C"/>
<path transform="translate(1103,1495)" d="m0 0h19l2 1v2h-12l-9-2z" fill="#5B6896"/>
<path transform="translate(198,1338)" d="m0 0 1 3-10 11-4 1v-2l5-5 4-5z" fill="#517B89"/>
<path transform="translate(1208,1109)" d="m0 0h1l-1 8-2 6-4-1 3-9z" fill="#4D717D"/>
<path transform="translate(761,802)" d="m0 0 5 2-1 4-4 2-5-1 2-6 2 1z" fill="#609295"/>
<path transform="translate(1231,1197)" d="m0 0 8 4 2 3-4 1-7-2-1-5z" fill="#639291"/>
<path transform="translate(778,888)" d="m0 0 6 2 4 2h7l1 3h-3l1 2-5-1-10-5z" fill="#68919F"/>
<path transform="translate(1469,1350)" d="m0 0 4 1-2 4-5 2v-3h-7l-1-2 10-1z" fill="#55838A"/>
<path transform="translate(958,389)" d="m0 0h7l1 3 3 1-6 1-3-1-12-1v-1l9-1z" fill="#5B968D"/>
<path transform="translate(1300,1242)" d="m0 0 5 5 2 5-5 1-2-2v-3l-1-5z" fill="#527E87"/>
<path transform="translate(655,905)" d="m0 0 3 2-3 5-3 7h-2l-1 2-1-2 5-12h2z" fill="#67929C"/>
<path transform="translate(851,644)" d="m0 0 2 4-3 7-4 4 1-7z" fill="#58858C"/>
<path transform="translate(484,1492)" d="m0 0 14 1 4 2-10 2-4-1-1-3z" fill="#5A6795"/>
<path transform="translate(1155,1186)" d="m0 0 7 1-1 3-8 3-3-1h2l2-5z" fill="#59928D"/>
<path transform="translate(893,1173)" d="m0 0 1 3-12 12-3-1z" fill="#557E8A"/>
<path transform="translate(1214,1094)" d="m0 0h1v5l-5 12-3-1 3-9z" fill="#5B8285"/>
<path transform="translate(588,615)" d="m0 0 4 1-1 4h-2l-2 5h-2v-6z" fill="#6E9AA2"/>
<path transform="translate(717,386)" d="m0 0h11l-2 2-13 1h-13v-1z" fill="#5D9A8E"/>
<path transform="translate(291,1489)" d="m0 0h9l9 1-1 2-6 1-2 1v-2l-9-1z" fill="#56718F"/>
<path transform="translate(1196,1155)" d="m0 0 2 1 1 4-3 5-3 2 1-10z" fill="#618F8E"/>
<path transform="translate(914,1134)" d="m0 0h2l-1 8-5 10h-2l1-4 3-8z" fill="#5B8C8F"/>
<path transform="translate(398,1129)" d="m0 0 2 2 2 6 1 2v6h-3l-3-13z" fill="#526E89"/>
<path transform="translate(853,650)" d="m0 0 1 2 4-1-2 6-2 1-1 3h-3l1-6z" fill="#609295"/>
<path transform="translate(1040,1463)" d="m0 0 6 4v2l4 1v2h3v3l-5-2-9-7z" fill="#627A9E"/>
<path transform="translate(1282,1199)" d="m0 0 2 3-1 7-1-4-6 1v-3l2-2z" fill="#659B8E"/>
<path transform="translate(498,1495)" d="m0 0 3 1 15 1v1h-28l4-2z" fill="#321E41"/>
<path transform="translate(655,1343)" d="m0 0h9l9 2-5 4h-4v-3l-9-2z" fill="#5B888F"/>
<path transform="translate(1164,1158)" d="m0 0 2 4 2 3h-3l-1 25h-1v-27z" fill="#507984"/>
<path transform="translate(1041,1154)" d="m0 0 5 1v5h-7l-1-4z" fill="#1C1124"/>
<path transform="translate(737,753)" d="m0 0 1 2-5 8-5 1v2l-3-1 5-5z" fill="#74B2AB"/>
<path transform="translate(514,537)" d="m0 0 1 3-11 12-1 2h-2l2-4 9-11z" fill="#201329"/>
<path transform="translate(220,1448)" d="m0 0 5 4v3l2 1 1 4-4-2-6-8z" fill="#647296"/>
<path transform="translate(508,1225)" d="m0 0h2l-2 4-7 3-4-1 7-5z" fill="#537B8B"/>
<path transform="translate(294,1209)" d="m0 0h2l6 11v5l-3-3-5-10z" fill="#75B7AC"/>
<path transform="translate(861,633)" d="m0 0v3l-7 14-2 5h-2l3-9 4-8z" fill="#5C8A90"/>
<path transform="translate(876,613)" d="m0 0 2 1v3l-5 5-6 5 2-4 2-3-2-1z" fill="#58858B"/>
<path transform="translate(1224,1193)" d="m0 0 5 4 1 6-4-1-3-5z" fill="#5B928D"/>
<path transform="translate(641,593)" d="m0 0 10 1v1l-18 4 3-3z" fill="#698DA3"/>
<path transform="translate(565,560)" d="m0 0 1 4-3 9-1 10h-1v-11l1-4-2-1z" fill="#5E8692"/>
<path transform="translate(557,407)" d="m0 0 3 1-7 8-4 5v-5z" fill="#56808A"/>
<path transform="translate(507,1446)" d="m0 0h5l-2 2-12 3h-6l4-4 5 1z" fill="#609295"/>
<path transform="translate(897,1173)" d="m0 0 2 1-10 10h-2l-1 3-1-3 8-8z" fill="#170D1D"/>
<path transform="translate(650,902)" d="m0 0 3 1-5 9-3-1 1-5z" fill="#6C9FA1"/>
<path transform="translate(621,773)" d="m0 0 9 2 5 2-3 2-9-2z" fill="#6D9FA3"/>
<path transform="translate(745,636)" d="m0 0 3 3 6 12-2 4-6-15z" fill="#411C42"/>
<path transform="translate(974,588)" d="m0 0 7 1 4 2 2 2 4 3-1 2-14-8z" fill="#331F42"/>
<path transform="translate(881,566)" d="m0 0 6 5 1 4-4-2-5-2v-2h-2l1-2 3 1z" fill="#699E9F"/>
<path transform="translate(889,525)" d="m0 0 2 2-7 6-4 7-2-1 2-5 5-6z" fill="#332143"/>
<path transform="translate(593,404)" d="m0 0h6l-3 2-15 4-4-1 3-2z" fill="#58858B"/>
<path transform="translate(281,1280)" d="m0 0 2 4-3 3-6 2 1-4 4-2v-2z" fill="#5A8491"/>
<path transform="translate(623,525)" d="m0 0 1 2 3 1-9 3-3-1-2-3 9-1z" fill="#65909A"/>
<path transform="translate(983,767)" d="m0 0h3v2l-13 7-4-1 10-5z" fill="#30163D"/>
<path transform="translate(983,598)" d="m0 0 6 2 2 5-1 2-9-7z" fill="#68A598"/>
<path transform="translate(539,480)" d="m0 0h1l1 13-4 5 1-12z" fill="#4F7B82"/>
<path transform="translate(483,1492)" d="m0 0 4 1v2l3 1-2 1h-12l2-2h5z" fill="#60719E"/>
<path transform="translate(182,1256)" d="m0 0 8 6 4 4-4-1-5-3-3-3z" fill="#64818B"/>
<path transform="translate(491,809)" d="m0 0 5 1v4l-9-1 1-3z" fill="#57768F"/>
<path transform="translate(666,574)" d="m0 0m-10 1h10l-3 3-9 1-2-2z" fill="#331F42"/>
<path transform="translate(606,532)" d="m0 0 4 2-7 3-6 3-2-1 4-4z" fill="#628E96"/>
<path transform="translate(387,1099)" d="m0 0 3 3 3 9-3 2-3-9z" fill="#5E828C"/>
<path transform="translate(836,935)" d="m0 0 3 2 4 7 1 5h-2l-4-5z" fill="#61879A"/>
<path transform="translate(728,386)" d="m0 0h7l2 2-17 2 1-2z" fill="#679A95"/>
<path transform="translate(709,1402)" d="m0 0h1l-1 7-5 9h-2l2-5z" fill="#64809E"/>
<path transform="translate(708,1175)" d="m0 0h2l7 8 2 4-6-4-5-5z" fill="#587C8D"/>
<path transform="translate(1102,814)" d="m0 0 4 1v7h-3l-2-6z" fill="#77BCAF"/>
<path transform="translate(583,730)" d="m0 0 4 4 4 6v3l-3-1-5-9z" fill="#30163D"/>
<path transform="translate(996,534)" d="m0 0 6 2 7 4v2l-6-2-6-3z" fill="#6B9EA4"/>
<path transform="translate(793,386)" d="m0 0 13 1v3l-16-1z" fill="#6CABA2"/>
<path transform="translate(660,375)" d="m0 0h10l-2 2-16 2v-2z" fill="#30153C"/>
<path transform="translate(587,1068)" d="m0 0h6l8 5v2l-6-2-8-4z" fill="#5F719B"/>
<path transform="translate(906,1357)" d="m0 0h6l1 2-2 3-1-1h-8z" fill="#609295"/>
<path transform="translate(1050,1342)" d="m0 0h4l-2 4-6 3-3-1 3-1 1-3h3z" fill="#6BA5A1"/>
<path transform="translate(1293,1233)" d="m0 0h1l1 15h1l-1 7-2-4z" fill="#4E7586"/>
<path transform="translate(1334,1155)" d="m0 0 1 2-4 7-4 2h-3l5-6z" fill="#4D6F7B"/>
<path transform="translate(910,1161)" d="m0 0 2 1-3 6-3-1 1-4z" fill="#311E3F"/>
<path transform="translate(396,1123)" d="m0 0h3l2 7-3-1-1 3-2-8z" fill="#4B6E77"/>
<path transform="translate(807,906)" d="m0 0h2v2l4-1 3 4v2l-5-1-4-4z" fill="#678E9E"/>
<path transform="translate(705,603)" d="m0 0 7 1 7 4v2l-5-2-9-4z" fill="#58466C"/>
<path transform="translate(1094,1491)" d="m0 0 15 3v1h-10l-8-2z" fill="#60719D"/>
<path transform="translate(399,1129)" d="m0 0 3 1 3 9h-3l-2-3z" fill="#52747E"/>
<path transform="translate(650,955)" d="m0 0 2 3 3 7-1 4-5-10z" fill="#638B99"/>
<path transform="translate(525,793)" d="m0 0 10 2v4l2 1-4-1-4-2z" fill="#4E6C7C"/>
<path transform="translate(1e3 397)" d="m0 0 10 2 1 2-12-1-3-2z" fill="#68A598"/>
<path transform="translate(1036,1463)" d="m0 0 12 9-1 2-10-7z" fill="#31183E"/>
<path transform="translate(1339,1436)" d="m0 0 3 2-2 2v3l-3 1-1-4-2-2z" fill="#5B8493"/>
<path transform="translate(850,662)" d="m0 0 5 1-1 4h-6l-1 2-2-2 6-2z" fill="#5A8292"/>
<path transform="translate(1022,405)" d="m0 0 11 1 4 3-14-2z" fill="#6CA6A2"/>
<path transform="translate(1135,1190)" d="m0 0 4 2-1 2h-6l-3-3z" fill="#649290"/>
<path transform="translate(848,983)" d="m0 0h1l1 14-1 1h-9v-1l7-1z" fill="#57708F"/>
<path transform="translate(597,944)" d="m0 0 8 1-3 2h-9l-1-2z" fill="#537E87"/>
<path transform="translate(565,569)" d="m0 0 1 4h-2v7l-2 3v-10z" fill="#31183E"/>
</svg>
